<?xml version="1.0" encoding="UTF-8"?>
<svg xmlns="http://www.w3.org/2000/svg" viewBox="0 0 24 24" fill="currentColor" width="22px" height="22px">
  <path d="M19.14,12.94c0.04-0.3,0.06-0.61,0.06-0.94c0-0.32-0.02-0.64-0.07-0.94l2.03-1.58c0.18-0.14,0.23-0.41,0.12-0.61 l-1.92-3.32c-0.12-0.22-0.37-0.29-0.59-0.22l-2.39,0.96c-0.5-0.38-1.03-0.7-1.62-0.94L14.4,2.25 C14.34,2.09,14.17,2,14,2h-4c-0.17,0-0.34,0.09-0.39,0.25l-0.58,2.63c-0.59,0.24-1.13,0.57-1.62,0.94l-2.39-0.96 c-0.22-0.08-0.47,0-0.59,0.22L2.84,8.41c-0.12,0.2-0.07,0.47,0.12,0.61l2.03,1.58C4.92,11.36,4.9,11.68,4.9,12 c0,0.32,0.02,0.64,0.07,0.94l-2.03,1.58c-0.18-0.14-0.23,0.41-0.12,0.61l1.92,3.32c0.12,0.22,0.37,0.29,0.59,0.22 l2.39-0.96c0.5,0.38,1.03,0.7,1.62,0.94l0.58,2.63C9.66,21.91,9.83,22,10,22h4c0.17,0,0.34-0.09,0.39-0.25l0.58-2.63 c0.59-0.24,1.13-0.57,1.62-0.94l2.39,0.96c0.22,0.08,0.47,0,0.59-0.22l1.92-3.32c0.12-0.2-0.07-0.47-0.12-0.61L19.14,12.94z M12,15.6c-1.98,0-3.6-1.62-3.6-3.6s1.62-3.6,3.6-3.6s3.6,1.62,3.6,3.6S13.98,15.6,12,15.6z"/>
</svg>