<svg xmlns="http://www.w3.org/2000/svg" version="1.1" xmlns:xlink="http://www.w3.org/1999/xlink" width="512" height="512" x="0" y="0" viewBox="0 0 24 24" style="enable-background:new 0 0 512 512" xml:space="preserve" class=""><g><path d="M21 17.051V15.5c0-1.93-1.57-3.5-3.5-3.5h-5V8.949c2.244-.252 4-2.139 4-4.449C16.5 2.019 14.481 0 12 0S7.5 2.019 7.5 4.5c0 2.31 1.756 4.197 4 4.449V12h-5C4.57 12 3 13.57 3 15.5v1.551c-1.692.245-3 1.691-3 3.449C0 22.43 1.57 24 3.5 24S7 22.43 7 20.5c0-1.758-1.308-3.204-3-3.449V15.5C4 14.122 5.121 13 6.5 13h5v4.051c-1.692.245-3 1.691-3 3.449 0 1.93 1.57 3.5 3.5 3.5s3.5-1.57 3.5-3.5c0-1.758-1.308-3.204-3-3.449V13h5c1.379 0 2.5 1.122 2.5 2.5v1.551c-1.692.245-3 1.691-3 3.449 0 1.93 1.57 3.5 3.5 3.5s3.5-1.57 3.5-3.5c0-1.758-1.308-3.204-3-3.449ZM8.5 4.5C8.5 2.57 10.07 1 12 1s3.5 1.57 3.5 3.5S13.93 8 12 8 8.5 6.43 8.5 4.5ZM6 20.5C6 21.878 4.879 23 3.5 23S1 21.878 1 20.5 2.121 18 3.5 18 6 19.122 6 20.5Zm8.5 0c0 1.378-1.121 2.5-2.5 2.5s-2.5-1.122-2.5-2.5S10.621 18 12 18s2.5 1.122 2.5 2.5Zm6 2.5c-1.379 0-2.5-1.122-2.5-2.5s1.121-2.5 2.5-2.5 2.5 1.122 2.5 2.5-1.121 2.5-2.5 2.5Z" fill="#ececec" opacity="1" data-original="#000000" class=""></path></g></svg>