<svg xmlns="http://www.w3.org/2000/svg" version="1.1" xmlns:xlink="http://www.w3.org/1999/xlink" width="24" height="24" x="0" y="0" viewBox="0 0 24 24" style="enable-background:new 0 0 512 512" xml:space="preserve" class=""><g><path d="M4 13h3v2H4zm5 2h3v-2H9zm-5 4h3v-2H4zm5 0h3v-2H9zM4 7h3V5H4zm5 0h3V5H9zm-5 4h3V9H4zm5 0h3V9H9zm15-3v16H0V3a3 3 0 0 1 3-3h10a3 3 0 0 1 3 3v2h5a3 3 0 0 1 3 3zM14 3a1 1 0 0 0-1-1H3a1 1 0 0 0-1 1v19h12zm8 5a1 1 0 0 0-1-1h-5v15h6zm-4 7h2v-2h-2zm0 4h2v-2h-2zm0-8h2V9h-2z" fill="#ececec" opacity="1" data-original="#000000" class=""></path></g></svg>