<svg xmlns="http://www.w3.org/2000/svg" version="1.1" xmlns:xlink="http://www.w3.org/1999/xlink" width="512" height="512" x="0" y="0" viewBox="0 0 24 24" style="enable-background:new 0 0 512 512" xml:space="preserve" class=""><g><path d="M12 13c1.654 0 3-1.346 3-3s-1.346-3-3-3-3 1.346-3 3 1.346 3 3 3Zm0-5c1.103 0 2 .897 2 2s-.897 2-2 2-2-.897-2-2 .897-2 2-2ZM12 15c-1.967 0-3.663 1.474-3.944 3.429a.5.5 0 1 0 .989.142C9.257 17.105 10.527 16 12 16s2.743 1.105 2.955 2.571a.5.5 0 0 0 .989-.142C15.662 16.474 13.966 15 12 15ZM15.716 14.29c.402-.192.834-.29 1.284-.29a3.007 3.007 0 0 1 2.955 2.571.5.5 0 0 0 .989-.142C20.662 14.474 18.966 13 17 13c-.6 0-1.177.131-1.716.388a.5.5 0 0 0 .432.902ZM8.666 13.388A3.956 3.956 0 0 0 6.95 13c-1.967 0-3.663 1.474-3.944 3.429a.5.5 0 1 0 .989.142A3.007 3.007 0 0 1 6.95 14c.45 0 .882.098 1.284.29a.5.5 0 0 0 .432-.902ZM15.8 6.399A2.002 2.002 0 0 1 19 8c0 .948-.673 1.772-1.6 1.96a.501.501 0 0 0 .199.98 3.008 3.008 0 0 0 2.4-2.94c0-1.654-1.346-3-3-3-.655 0-1.277.208-1.8.601a.5.5 0 1 0 .6.799ZM4 8a3.008 3.008 0 0 0 2.4 2.94.5.5 0 0 0 .199-.98A2.005 2.005 0 0 1 4.999 8a2.002 2.002 0 0 1 3.2-1.601.497.497 0 0 0 .7-.1.498.498 0 0 0-.1-.699 2.975 2.975 0 0 0-1.8-.601c-1.654 0-3 1.346-3 3ZM.5 7a.5.5 0 0 0 .5-.5v-2C1 2.57 2.57 1 4.5 1h2a.5.5 0 0 0 0-1h-2A4.505 4.505 0 0 0 0 4.5v2a.5.5 0 0 0 .5.5ZM6.5 23h-2C2.57 23 1 21.43 1 19.5v-2a.5.5 0 0 0-1 0v2C0 21.981 2.019 24 4.5 24h2a.5.5 0 0 0 0-1ZM23.5 17a.5.5 0 0 0-.5.5v2c0 1.93-1.57 3.5-3.5 3.5h-2a.5.5 0 0 0 0 1h2c2.481 0 4.5-2.019 4.5-4.5v-2a.5.5 0 0 0-.5-.5ZM19.5 0h-2a.5.5 0 0 0 0 1h2C21.43 1 23 2.57 23 4.5v2a.5.5 0 0 0 1 0v-2C24 2.019 21.981 0 19.5 0Z" fill="#ececec" opacity="1" data-original="#000000" class=""></path></g></svg>