<svg xmlns="http://www.w3.org/2000/svg" version="1.1" xmlns:xlink="http://www.w3.org/1999/xlink" width="512" height="512" x="0" y="0" viewBox="0 0 24 24" style="enable-background:new 0 0 512 512" xml:space="preserve" class=""><g><path d="M24 23.5a.5.5 0 0 1-.5.5h-19A4.505 4.505 0 0 1 0 19.5V.5a.5.5 0 0 1 1 0v19C1 21.43 2.57 23 4.5 23h19a.5.5 0 0 1 .5.5ZM18.5 20a.5.5 0 0 0 .5-.5v-13a.5.5 0 0 0-1 0v13a.5.5 0 0 0 .5.5Zm-4 0a.5.5 0 0 0 .5-.5v-8a.5.5 0 0 0-1 0v8a.5.5 0 0 0 .5.5Zm-4 0a.5.5 0 0 0 .5-.5v-13a.5.5 0 0 0-1 0v13a.5.5 0 0 0 .5.5Zm-4 0a.5.5 0 0 0 .5-.5v-8a.5.5 0 0 0-1 0v8a.5.5 0 0 0 .5.5Z" fill="#ececec" opacity="1" data-original="#000000" class=""></path></g></svg>