<svg xmlns="http://www.w3.org/2000/svg" version="1.1" xmlns:xlink="http://www.w3.org/1999/xlink" width="512" height="512" x="0" y="0" viewBox="0 0 24 24" style="enable-background:new 0 0 512 512" xml:space="preserve" class=""><g><path d="M3.5 6c-.668 0-1.296-.26-1.768-.732L.167 3.873a.5.5 0 1 1 .665-.747L2.418 4.54c.608.605 1.576.586 2.142.02l3.595-3.423a.5.5 0 0 1 .689.725L5.258 5.276A2.478 2.478 0 0 1 3.499 6ZM24 4.5a.5.5 0 0 0-.5-.5h-11a.5.5 0 0 0 0 1h11a.5.5 0 0 0 .5-.5ZM5.259 13.276l3.586-3.414a.5.5 0 0 0-.689-.725L4.561 12.56c-.566.566-1.555.566-2.121 0L.854 10.975a.5.5 0 0 0-.707.707l1.586 1.585c.472.472 1.1.732 1.768.732s1.296-.26 1.759-.724ZM24 12.5a.5.5 0 0 0-.5-.5h-11a.5.5 0 0 0 0 1h11a.5.5 0 0 0 .5-.5ZM5.259 21.276l3.586-3.414a.5.5 0 0 0-.689-.725L4.561 20.56c-.566.566-1.534.586-2.142-.02L.833 19.126a.5.5 0 1 0-.665.747l1.565 1.395c.472.472 1.1.732 1.768.732s1.296-.26 1.759-.724ZM24 20.5a.5.5 0 0 0-.5-.5h-11a.5.5 0 0 0 0 1h11a.5.5 0 0 0 .5-.5Z" fill="#ececec" opacity="1" data-original="#000000" class=""></path></g></svg>