<svg xmlns="http://www.w3.org/2000/svg" version="1.1" xmlns:xlink="http://www.w3.org/1999/xlink" width="24" height="24" x="0" y="0" viewBox="0 0 24 24" style="enable-background:new 0 0 512 512" xml:space="preserve" class=""><g><path d="M19 1H5C2.243 1 0 3.243 0 6v12c0 2.757 2.243 5 5 5h14c2.757 0 5-2.243 5-5V6c0-2.757-2.243-5-5-5ZM5 3h14c1.654 0 3 1.346 3 3v2H2V6c0-1.654 1.346-3 3-3Zm14 18H5c-1.654 0-3-1.346-3-3v-8h20v8c0 1.654-1.346 3-3 3ZM3 5.5a1.5 1.5 0 1 1 3.001.001A1.5 1.5 0 0 1 3 5.5Zm4 0a1.5 1.5 0 1 1 3.001.001A1.5 1.5 0 0 1 7 5.5Zm3.707 10.579a.999.999 0 0 1 0 1.414l-1.982 1.982a1.785 1.785 0 0 1-2.496.035l-1.163-1.103a.999.999 0 1 1 1.375-1.451l1.015.96 1.838-1.838a.999.999 0 0 1 1.414 0ZM19 18a1 1 0 0 1-1 1h-4a1 1 0 1 1 0-2h4a1 1 0 0 1 1 1Zm-8.293-6.921a.999.999 0 0 1 0 1.414l-1.982 1.982a1.785 1.785 0 0 1-2.496.035l-1.163-1.103a.999.999 0 1 1 1.375-1.452l1.015.96 1.838-1.838a.999.999 0 0 1 1.414 0ZM19 13a1 1 0 0 1-1 1h-4a1 1 0 1 1 0-2h4a1 1 0 0 1 1 1Z" fill="#ececec" opacity="1" data-original="#000000" class=""></path></g></svg>