<svg xmlns="http://www.w3.org/2000/svg" version="1.1" xmlns:xlink="http://www.w3.org/1999/xlink" width="512" height="512" x="0" y="0" viewBox="0 0 512 512" style="enable-background:new 0 0 512 512" xml:space="preserve" class=""><g><path fill="#bababa" d="M506.619 256c0-62.518-25.819-140.246-75.743-186.962C385.113 26.216 323.618 0 256 0 114.615 0 0 114.615 0 256c0 67.618 26.216 129.113 69.038 174.876C115.754 480.8 191.579 507.328 256 507.328c141.385 0 250.619-109.943 250.619-251.328z" opacity="1" data-original="#615260" class=""></path><circle cx="256" cy="256" r="222.968" fill="#585858" opacity="1" data-original="#eceaec" class=""></circle><circle cx="256" cy="256" r="206.452" fill="#ffffff" opacity="1" data-original="#ffffff" class=""></circle><circle cx="256" cy="256" r="33.032" fill="#585858" opacity="1" data-original="#eceaec" class=""></circle><path fill="#ff5f7a" d="M256 66.065V256h189.935c0-104.899-85.036-189.935-189.935-189.935z" opacity="1" data-original="#ff5f7a"></path><path fill="#fb4455" d="M256 222.968V256h33.032c0-18.243-14.789-33.032-33.032-33.032z" opacity="1" data-original="#fb4455"></path><path fill="#bababa" d="M256 107.355a8.256 8.256 0 0 1-8.258-8.258V74.323c0-4.56 3.694-8.258 8.258-8.258s8.258 3.698 8.258 8.258v24.774a8.256 8.256 0 0 1-8.258 8.258zM256 445.935a8.256 8.256 0 0 1-8.258-8.258v-24.774c0-4.56 3.694-8.258 8.258-8.258s8.258 3.698 8.258 8.258v24.774a8.255 8.255 0 0 1-8.258 8.258z" opacity="1" data-original="#615260" class=""></path><path fill="#736572" d="M379.871 264.258H256a8.256 8.256 0 0 1-8.258-8.258V132.129c0-4.56 3.694-8.258 8.258-8.258s8.258 3.698 8.258 8.258v115.613h115.613c4.565 0 8.258 3.698 8.258 8.258s-3.694 8.258-8.258 8.258z" opacity="1" data-original="#736572"></path><circle cx="256" cy="256" r="16.516" fill="#adadad" opacity="1" data-original="#4e3d4d" class=""></circle><path fill="#bababa" d="M437.677 264.258h-24.774c-4.565 0-8.258-3.698-8.258-8.258s3.694-8.258 8.258-8.258h24.774c4.565 0 8.258 3.698 8.258 8.258s-3.693 8.258-8.258 8.258zM99.097 264.258H74.323c-4.565 0-8.258-3.698-8.258-8.258s3.694-8.258 8.258-8.258h24.774c4.565 0 8.258 3.698 8.258 8.258s-3.694 8.258-8.258 8.258z" opacity="1" data-original="#615260" class=""></path><path fill="#887f88" d="M165.153 421.597a8.257 8.257 0 0 1-7.145-12.387l8.258-14.306c2.274-3.956 7.339-5.306 11.282-3.024a8.257 8.257 0 0 1 3.024 11.282l-8.258 14.306a8.258 8.258 0 0 1-7.161 4.129z" opacity="1" data-original="#887f88" class=""></path><path fill="#d93f50" d="M338.573 121.226a8.257 8.257 0 0 1-7.145-12.387l8.258-14.306c2.282-3.956 7.339-5.31 11.282-3.024a8.257 8.257 0 0 1 3.024 11.282l-8.258 14.306a8.26 8.26 0 0 1-7.161 4.129z" opacity="1" data-original="#d93f50" class=""></path><g fill="#887f88"><path d="M346.847 421.597a8.258 8.258 0 0 1-7.161-4.129l-8.258-14.306a8.257 8.257 0 0 1 3.024-11.282c3.935-2.282 9-.931 11.282 3.024l8.258 14.306a8.257 8.257 0 0 1-7.145 12.387zM173.427 121.226a8.258 8.258 0 0 1-7.161-4.129l-8.258-14.306a8.257 8.257 0 0 1 3.024-11.282c3.935-2.286 8.992-.931 11.282 3.024l8.258 14.306a8.257 8.257 0 0 1-7.145 12.387zM112.96 181.677a8.212 8.212 0 0 1-4.121-1.105l-14.306-8.258a8.257 8.257 0 0 1-3.024-11.282c2.282-3.956 7.339-5.31 11.282-3.024l14.306 8.258a8.257 8.257 0 0 1-4.137 15.411zM413.331 355.097a8.212 8.212 0 0 1-4.121-1.105l-14.306-8.258a8.257 8.257 0 0 1-3.024-11.282c2.282-3.956 7.339-5.31 11.282-3.024l14.306 8.258a8.257 8.257 0 0 1-4.137 15.411zM98.669 355.097a8.257 8.257 0 0 1-4.137-15.411l14.306-8.258c3.927-2.286 8.992-.931 11.282 3.024 2.282 3.952.927 9-3.024 11.282l-14.306 8.258a8.21 8.21 0 0 1-4.121 1.105z" fill="#887f88" opacity="1" data-original="#887f88" class=""></path></g><path fill="#d93f50" d="M399.04 181.677a8.257 8.257 0 0 1-4.137-15.411l14.306-8.258c3.935-2.286 9-.931 11.282 3.024 2.282 3.952.927 9-3.024 11.282l-14.306 8.258a8.2 8.2 0 0 1-4.121 1.105z" opacity="1" data-original="#d93f50" class=""></path><path fill="#adadad" d="M430.876 69.038c42.816 45.762 69.017 107.243 69.017 174.855 0 141.385-114.615 256-256 256-67.612 0-129.094-26.202-174.855-69.017C115.754 480.806 182.227 512 256 512c141.385 0 256-114.615 256-256 0-73.773-31.194-140.245-81.124-186.962z" opacity="1" data-original="#4e3d4d" class=""></path></g></svg>