<svg xmlns="http://www.w3.org/2000/svg" version="1.1" xmlns:xlink="http://www.w3.org/1999/xlink" width="512" height="512" x="0" y="0" viewBox="0 0 512 512" style="enable-background:new 0 0 512 512" xml:space="preserve" class=""><g><path fill="#ececec" d="M484.26 27.74a40.1 40.1 0 0 1 0 56.7l-23.85 23.85-56.7-56.7 23.85-23.85a40.106 40.106 0 0 1 56.7 0z" opacity="1" data-original="#5fa8ed" class=""></path><path fill="#ececec" d="M484.36 153.54a13.948 13.948 0 0 1 0 19.73L373.48 284.15a13.955 13.955 0 0 1-19.73-19.74L454.76 163.4l-20.84-20.83 19.74-19.74z" opacity="1" data-original="#b0b5ca" class=""></path><path fill="#ececec" d="m98.839 356.425 261.83-261.83 56.682 56.682-261.83 261.83z" opacity="1" data-original="#5fa8ed" class=""></path><path fill="#5dc5b7" d="m62.942 392.29 35.874-35.874 56.682 56.682-35.874 35.874z" opacity="1" data-original="#72bcef" class=""></path><path fill="#ececec" d="M119.68 449.01 36.4 475.6l26.59-83.28z" opacity="1" data-original="#b0b5ca" class=""></path><path fill="#cfcfcf" d="M492.436 39.562A40.089 40.089 0 0 0 427.56 27.74l-23.85 23.85 20 20 23.85-23.85a40.115 40.115 0 0 1 44.876-8.178zM98.84 356.423l261.831-261.83 19.997 19.996-261.83 261.83z" opacity="1" data-original="#4783b5" class=""></path><path fill="#74e0d2" d="m62.943 392.288 35.875-35.875 19.997 19.997-35.875 35.875z" opacity="1" data-original="#5d9dc1" class=""></path><path fill="#fbfbfb" d="m82.99 412.32-20-20L36.4 475.6l29.381-9.381z" opacity="1" data-original="#888d9e" class=""></path><path fill="#2c2c2c" d="m399.81 47.69-42.97 42.98 64.49 64.49 42.98-42.97z" opacity="1" data-original="#e87187" class=""></path><path fill="#101010" d="m356.792 90.698 42.969-42.968 19.997 19.997-42.969 42.968z" opacity="1" data-original="#c16175" class=""></path><path fill="#f4f8fc" d="M181.95 309.633a6 6 0 0 1-4.243-10.242l5.766-5.767a6 6 0 0 1 8.486 8.484l-5.766 5.767a5.983 5.983 0 0 1-4.243 1.758z" data-name="Path 3" opacity="1" data-original="#f4f8fc" class=""></path><path fill="#f4f8fc" d="M200.546 291.037a6 6 0 0 1-4.242-10.243l56.765-56.765a6 6 0 0 1 8.485 8.485l-56.766 56.765a5.979 5.979 0 0 1-4.242 1.758z" data-name="Path 3-2" opacity="1" data-original="#f4f8fc" class=""></path></g></svg>