<svg id="Capa_1" enable-background="new 0 0 512 512" height="512" viewBox="0 0 512 512" width="512" xmlns="http://www.w3.org/2000/svg">

            <filter id="shadow" x="-50%" y="-50%" width="496.158" height="496.158">
                <feDropShadow dx="4" dy="4" stdDeviation="5" flood-color="#000000" flood-opacity="0.3"/>
            </filter>

            <g id="lower-swirls" filter="url(#shadow)">
                <!-- Wirbel-Gruppen: Ursprüngliche Füllung wiederhergestellt und Strich entfernt -->
                <!-- Zentraler Wirbel -->
                <path fill="#bed9fd" d="m287.439 311.855c-29.289 0-59.679-8.997-92.642-27.389-29.548-16.487-61.139-32.224-91.95-35.711-33.358-3.776-62.768 7.307-89.91 33.88-3.006 2.941-7.824 2.889-10.764-.114-2.941-3.003-2.89-7.823.114-10.764 30.622-29.978 64.071-42.45 102.271-38.128 33.481 3.788 66.721 20.283 97.656 37.544 33.184 18.516 63.233 26.786 91.875 25.286 33.681-1.767 65.781-17.789 95.408-47.622 2.962-2.984 7.782-2.999 10.764-.037s2.999 7.781.037 10.765c-32.374 32.598-67.839 50.126-105.412 52.097-2.474.128-4.958.193-7.447.193z"/>
                <!-- Der untere linke Wirbel wurde von Schwarz auf #ececec geändert -->
                <path fill="#bed9fd" d="m52.157 399.897c-2.246 0-4.507-.17-6.766-.518-16.255-2.507-30.756-14.019-36.084-28.647-6.02-16.521-4.112-33.543 5.517-49.224 15.038-24.487 45.33-40.001 67.483-42.671 26.401-3.186 52.181 7.228 71.688 16.654 3.785 1.829 5.371 6.38 3.542 10.165-1.829 3.783-6.378 5.372-10.165 3.542-33.577-16.224-51.438-16.672-63.244-15.247-18.07 2.178-43.954 15.368-56.332 35.524-7.213 11.746-8.621 23.874-4.186 36.047 3.43 9.417 13.341 17.153 24.101 18.812 9.006 1.392 18.365-1.632 23.839-7.698 5.549-6.146 6.873-15.727 3.079-22.288-1.964-3.395-5.881-6.143-10.223-7.171-2.192-.518-6.414-1.031-10.07 1.373-3.511 2.308-8.232 1.333-10.541-2.179s-1.334-8.232 2.178-10.542c6.244-4.106 14.036-5.336 21.94-3.466 8.406 1.99 15.843 7.359 19.894 14.364 7.071 12.228 4.987 29.096-4.957 40.109-7.525 8.335-18.866 13.06-30.693 13.061z"/>
            </g>
            <g id="upper-swirls" filter="url(#shadow)">
                <!-- Oberer linker Wirbel -->
                <path fill="#bed9fd" d="m246.311 231.146c-4.074 0-8.215-.232-12.432-.697-26.396-2.905-52.597-14.44-77.935-25.595-49.616-21.845-96.485-42.48-143.303-1.254-3.156 2.779-7.964 2.472-10.742-.682-2.778-3.155-2.473-7.965.683-10.743 24.336-21.429 51.005-30.213 81.563-26.849 26.396 2.905 52.597 14.44 77.935 25.595 49.617 21.846 96.485 42.479 143.302 1.254 3.154-2.778 7.964-2.473 10.742.682s2.473 7.965-.683 10.743c-20.976 18.47-43.696 27.545-69.13 27.546z"/>
                <!-- Oberer mittlerer Wirbel -->
                <path fill="#bed9fd" d="m244.647 163.228c-22.877 0-44.728-8.997-61.787-17.239-3.785-1.829-5.37-6.38-3.541-10.165 1.828-3.784 6.376-5.374 10.165-3.542 33.572 16.223 51.431 16.671 63.243 15.247 18.07-2.178 43.954-15.368 56.332-35.524 7.213-11.746 8.622-23.874 4.187-36.047-3.431-9.417-13.342-17.154-24.101-18.812-9.018-1.391-18.367 1.632-23.84 7.698-5.549 6.147-6.872 15.728-3.079 22.288 1.964 3.395 5.881 6.143 10.223 7.171 2.192.52 6.415 1.031 10.07-1.373 3.512-2.308 8.233-1.334 10.541 2.179 2.309 3.512 1.334 8.232-2.178 10.542-6.244 4.106-14.037 5.335-21.94 3.466-8.406-1.99-15.843-7.359-19.894-14.364-7.071-12.227-4.986-29.095 4.956-40.109 8.954-9.918 23.307-14.726 37.46-12.543 16.254 2.506 30.755 14.018 36.085 28.647 6.02 16.522 4.111 33.544-5.518 49.224-15.038 24.487-45.331 40.001-67.483 42.671-3.312.4-6.618.585-9.901.585z"/>
            </g>

            <!-- Blätter (oben rechts), verkleinert und verschoben -->
            <g id="leaves-top" transform="scale(0.3) translate(-10, 260)" filter="url(#shadow)">
                <g>
                    <path d="m507.211 43.777c-1.224-3.479-3.955-6.21-7.435-7.435-29.66-10.439-63.983-3.818-87.703 19.901-23.719 23.719-30.34 58.042-19.901 87.703 1.224 3.479 3.955 6.21 7.435 7.435 29.661 10.438 63.983 3.818 87.703-19.901 23.719-23.72 30.339-58.043 19.901-87.703z" fill="#70c6db"/>
                    <path d="m507.211 43.777c-1.031-2.929-3.137-5.315-5.852-6.731 4.413 26.023-3.407 53.711-23.493 73.797-23.719 23.719-58.042 30.34-87.702 19.901-.55-.194-1.073-.437-1.583-.703.798 4.708 1.993 9.362 3.592 13.906 1.224 3.479 3.955 6.21 7.435 7.434 29.661 10.439 63.983 3.818 87.702-19.901s30.339-58.043 19.901-87.703z" fill="#64b0cb"/>
                    <path d="m508.042 46.278-105.932 105.932-26.437 26.447c-1.492 1.482-3.44 2.233-5.389 2.233-1.948 0-3.897-.751-5.379-2.233-2.974-2.974-2.974-7.794 0-10.768l132.379-132.379c.832.264 1.665.538 2.497.832 3.471 1.228 6.201 3.958 7.429 7.439.294.833.568 1.665.832 2.497z" fill="#5d91b9"/>
                    <path d="m508.042 46.278-5.501 5.501c.041-4.932-.355-9.864-1.177-14.736.172.091.335.183.497.274.832.487 1.583 1.056 2.273 1.705.274.264.538.538.781.822.122.142.244.294.365.436.233.294.457.599.66.924.518.792.944 1.664 1.269 2.578.295.832.569 1.664.833 2.496z" fill="#4980ac"/>
                    <path d="m418.795 135.525-43.122 43.132c-1.492 1.482-3.44 2.233-5.389 2.233-1.948 0-3.897-.751-5.379-2.233-2.974-2.974-2.974-7.794 0-10.768l34.485-34.485c6.374 1.462 12.889 2.172 19.405 2.121z" fill="#4980ac"/>
                    <path d="m508.042 46.278-5.501 5.501c.041-4.932-.355-9.864-1.177-14.736 1.273.674 2.434 1.496 3.552 2.801 1.78 2.072 2.286 3.786 3.126 6.434z" fill="#4980ac"/>
                </g>
            </g>

            <!-- Blätter (unten links), verkleinert und verschoben -->
            <g id="leaves-bottom" transform="scale(0.5) translate(185, 326)" filter="url(#shadow)">
                <g>
                    <path d="m358.484 475.658c3.479-1.224 6.21-3.955 7.435-7.434 10.439-29.66 3.818-63.983-19.901-87.703-23.719-23.719-58.042-30.34-87.703-19.901-3.479 1.224-6.21 3.955-7.435 7.435-10.438 29.661-3.818 63.983 19.901 87.703 23.719 23.718 58.042 30.338 87.703 19.9z" fill="#70c6db"/>
                    <path d="m358.484 475.658c2.929-1.031 5.315-3.137 6.731-5.852-26.023 4.413-53.711-3.407-73.797-23.493-23.719-23.719-30.34-58.042-19.901-87.702.194-.55.437-1.073.703-1.583-4.708.798-9.362 1.993-13.906 3.592-3.479 1.224-6.21 3.955-7.434 7.435-10.439 29.661-3.818 63.983 19.901 87.702s58.042 30.339 87.703 19.901z" fill="#64b0cb"/>
                    <path d="m366.742 465.732c-.254.832-.528 1.665-.822 2.487-1.228 3.481-3.958 6.211-7.439 7.439-.832.294-1.664.568-2.497.832l-105.931-105.932-26.447-26.437c-2.974-2.974-2.974-7.794 0-10.768 2.973-2.973 7.794-2.973 10.768 0l26.437 26.437z" fill="#5d91b9"/>
                    <path d="m268.848 367.838c-1.451 6.384-2.162 12.889-2.111 19.404l-43.132-43.122c-2.974-2.974-2.974-7.794 0-10.768 2.973-2.973 7.794-2.973 10.768 0z" fill="#4980ac"/>
                    <path d="m365.22 469.802c-.503.95-.977 1.716-1.979 2.781-2.225 2.31-4.261 2.958-7.256 3.907l-5.5-5.501c4.932.041 9.854-.365 14.725-1.187z" fill="#4980ac"/>
                </g>
            </g>
        </svg>
