<?xml version="1.0" encoding="UTF-8"?>
<svg xmlns="http://www.w3.org/2000/svg" version="1.1" xmlns:xlink="http://www.w3.org/1999/xlink" width="512" height="512" x="0" y="0" viewBox="0 0 24 24" style="enable-background:new 0 0 512 512" xml:space="preserve">
  <g>
    <path d="M9.149 5.274C8.976 4.512 8.334 4 7.551 4s-1.424.513-1.59 1.246L3.02 15.36c-.076.263.105.638.469.639H3.509a.5.5 0 0 0 .471-.36l1.056-3.632h4.965l1.018 3.627a.5.5 0 0 0 .963-.269L9.149 5.274Zm-3.823 5.733 1.602-5.511c.083-.366.376-.497.623-.497s.54.131.629.521l1.54 5.487H5.326ZM18.5 14.499a.5.5 0 0 1-.5.5h-3.5a.5.5 0 0 1 0-1H18a.5.5 0 0 1 .5.5Zm2-9a.5.5 0 0 1-.5.5h-5.5a.5.5 0 0 1 0-1H20a.5.5 0 0 1 .5.5Zm0-5.5h-17A3.505 3.505 0 0 0 0 3.5v13C0 18.43 1.57 20 3.5 20h3.606l3.897 3.283c.286.254.645.38 1.001.38.353 0 .703-.123.979-.368L16.968 20H20.5c1.93 0 3.5-1.57 3.5-3.5v-13C24 1.57 22.43 0 20.5 0Zm2.5 16.5c0 1.379-1.121 2.5-2.5 2.5h-3.712a.503.503 0 0 0-.318.114l-4.137 3.421a.502.502 0 0 1-.675-.009l-4.047-3.409a.506.506 0 0 0-.322-.117H3.5a2.503 2.503 0 0 1-2.5-2.5V3.5C1 2.121 2.122 1 3.5 1h17C21.879 1 23 2.121 23 3.5v13Zm-2.5-5a.5.5 0 0 1-.5.5h-5.5a.5.5 0 0 1 0-1H20a.5.5 0 0 1 .5.5Zm0-3a.5.5 0 0 1-.5.5h-5.5a.5.5 0 0 1 0-1H20a.5.5 0 0 1 .5.5Z" fill="#ececec" opacity="1" data-original="#000000"></path>
  </g>
</svg>