<?xml version="1.0" encoding="UTF-8"?>
<svg xmlns="http://www.w3.org/2000/svg" version="1.1" xmlns:xlink="http://www.w3.org/1999/xlink" width="512" height="512" x="0" y="0" viewBox="0 0 64 64" style="enable-background:new 0 0 512 512" xml:space="preserve">
    <defs>
        <!-- Linearer Farbgradient für die Hauptkugel: von links unten (#ececec) nach rechts oben (#ADD8E6) -->
        <linearGradient id="sphereGradient" x1="0%" y1="100%" x2="100%" y2="0%">
            <stop offset="0%" style="stop-color:#ececec;"/>
            <stop offset="100%" style="stop-color:#ADD8E6;"/>
        </linearGradient>
    </defs>
    <g>
        <!-- Die erste grosse Kugel erhält den Farbgradienten -->
        <path fill="url(#sphereGradient)" d="M33.47 23.84A12.15 12.15 0 1 1 25.6 8.58a12.14 12.14 0 0 1 7.87 15.26zM54.25 33.4a8.48 8.48 0 1 1-8.47-8.47 8.48 8.48 0 0 1 8.47 8.47zM34.05 48.47a7.54 7.54 0 1 1-7.54-7.54 7.54 7.54 0 0 1 7.54 7.54z" opacity="1" data-original="#94d8e5" class=""></path>
        <path fill="#ffffff" d="M26.75 15A2.68 2.68 0 1 1 25 11.63 2.68 2.68 0 0 1 26.75 15z" opacity="1" data-original="#f7f8fa" class=""></path>
        <g fill="#7bd1e0">
            <path d="M47.57 16a2.24 2.24 0 1 1-2.24-2.24A2.24 2.24 0 0 1 47.57 16zM33.12 35.17a1.86 1.86 0 1 1-1.86-1.86 1.86 1.86 0 0 1 1.86 1.86zM43.53 47.67A2.65 2.65 0 1 1 40.89 45a2.64 2.64 0 0 1 2.64 2.67zM45.54 27.37a5.75 5.75 0 0 0-5.73 5.73 1 1 0 0 0 2 0 3.72 3.72 0 0 1 3.73-3.73 1 1 0 0 0 0-2zM14.08 21.85a1 1 0 0 0-.61 1.27 8.94 8.94 0 0 0 5.71 5.55 1 1 0 0 0 .61-1.91 6.92 6.92 0 0 1-4.44-4.3 1 1 0 0 0-1.27-.61zM26.51 43a1 1 0 0 0 0 2 3.48 3.48 0 0 1 3.5 3.5 1 1 0 0 0 2 0 5.51 5.51 0 0 0-5.5-5.5z" fill="#cfcfcf" opacity="1" data-original="#7bd1e0" class=""></path>
        </g>
    </g>
</svg>
