<?xml version="1.0" encoding="UTF-8"?>
<svg xmlns="http://www.w3.org/2000/svg" version="1.1" xmlns:xlink="http://www.w3.org/1999/xlink" width="512" height="512" x="0" y="0" viewBox="0 0 24 24" style="enable-background:new 0 0 512 512" xml:space="preserve">
  <g>
    <path d="M20.949 3.497a1 1 0 0 0-.475-.662C20.345 2.759 17.273 1 12.091 1 7 1 3.534 2.778 3.526 2.835a1 1 0 0 0-.475.662c-.534 2.6-2.094 12.773.038 15.037 2.346 2.493 7.986 4.234 8.621 4.424.188.055.392.057.58 0 .635-.19 6.274-1.931 8.622-4.424 2.131-2.264.571-12.437.037-15.037zm-1.494 13.666c-1.544 1.641-5.395 3.146-7.455 3.792-2.06-.647-5.911-2.151-7.456-3.792-.796-.846-.764-6.953.371-12.79C5.768 3.956 8.5 3 12.082 3c3.626 0 6.099.957 7.003 1.373 1.135 5.837 1.167 11.944.37 12.79zM12 7c-1.991 0-3 1.009-3 3 0 1.619.679 2.578 2 2.883V15a1 1 0 0 0 2 0v-2.117c1.321-.306 2-1.264 2-2.883 0-1.991-1.009-3-3-3zm0 4c-.878 0-1-.122-1-1s.122-1 1-1 1 .122 1 1-.122 1-1 1z" fill="#ececec" opacity="1" data-original="#000000" class=""></path>
  </g>
</svg>