<?xml version="1.0" encoding="UTF-8"?>
<svg xmlns="http://www.w3.org/2000/svg" version="1.1" xmlns:xlink="http://www.w3.org/1999/xlink" width="512" height="512" x="0" y="0" viewBox="0 0 24 24" style="enable-background:new 0 0 512 512" xml:space="preserve">
  <g>
    <path d="M13 10a1 1 0 1 1-2 0 1 1 0 0 1 2 0Zm4-1a1 1 0 1 0 0 2 1 1 0 0 0 0-2ZM7 9a1 1 0 1 0 0 2 1 1 0 0 0 0-2Zm17-5.5v13c0 1.93-1.57 3.5-3.5 3.5h-3.532l-3.985 3.295a1.467 1.467 0 0 1-.978.368c-.356 0-.716-.126-1.001-.379L7.106 20H3.501c-1.93 0-3.5-1.57-3.5-3.5v-13A3.502 3.502 0 0 1 3.5 0h17C22.43 0 24 1.57 24 3.5Zm-1 0C23 2.122 21.879 1 20.5 1h-17A2.503 2.503 0 0 0 1 3.5v13C1 17.878 2.121 19 3.5 19h3.788a.5.5 0 0 1 .322.118l4.048 3.41a.503.503 0 0 0 .674.008l4.138-3.421a.5.5 0 0 1 .318-.115H20.5c1.379 0 2.5-1.122 2.5-2.5v-13Z" fill="#ececec" opacity="1" data-original="#000000" class=""></path>
  </g>
</svg>