<svg xmlns="http://www.w3.org/2000/svg" version="1.1" xmlns:xlink="http://www.w3.org/1999/xlink" width="24" height="24" x="0" y="0" viewBox="0 0 24 24" style="enable-background:new 0 0 512 512" xml:space="preserve" class=""><g><path d="M.293 1.707A.999.999 0 1 1 1.707.293l8 8a.999.999 0 1 1-1.414 1.414l-8-8ZM21 0h-5a1 1 0 1 0 0 2h4.586L.293 22.293a.999.999 0 1 0 1.414 1.414L22 3.414V8a1 1 0 1 0 2 0V3c0-1.654-1.346-3-3-3Zm2 15a1 1 0 0 0-1 1v4.586l-6.293-6.293a.999.999 0 1 0-1.414 1.414L20.586 22H16a1 1 0 1 0 0 2h5c1.654 0 3-1.346 3-3v-5a1 1 0 0 0-1-1Z" fill="#ececec" opacity="1" data-original="#000000"></path></g></svg>