<svg xmlns="http://www.w3.org/2000/svg" version="1.1" xmlns:xlink="http://www.w3.org/1999/xlink" width="24" height="24" x="0" y="0" viewBox="0 0 24 24" style="enable-background:new 0 0 512 512" xml:space="preserve" class=""><g><path d="M8 0C4.691 0 2 2.691 2 6s2.691 6 6 6 6-2.691 6-6-2.691-6-6-6Zm0 10c-2.206 0-4-1.794-4-4s1.794-4 4-4 4 1.794 4 4-1.794 4-4 4Zm-3.5 4H10v2H4.5A2.503 2.503 0 0 0 2 18.5V24H0v-5.5C0 16.019 2.019 14 4.5 14Zm18 4c0-.46-.089-.895-.218-1.313l1.416-.816-.998-1.733-1.411.813A4.485 4.485 0 0 0 19 13.621V12h-2v1.621a4.481 4.481 0 0 0-2.289 1.33l-1.411-.813-.998 1.733 1.416.816c-.129.418-.218.853-.218 1.313s.089.895.218 1.313l-1.416.816.998 1.733 1.411-.813A4.485 4.485 0 0 0 17 22.379V24h2v-1.621a4.481 4.481 0 0 0 2.289-1.33l1.411.813.998-1.733-1.416-.816c.129-.418.218-.853.218-1.313ZM18 20.5c-1.378 0-2.5-1.122-2.5-2.5s1.122-2.5 2.5-2.5 2.5 1.122 2.5 2.5-1.122 2.5-2.5 2.5Z" fill="#ececec" opacity="1" data-original="#000000"></path></g></svg>