<?xml version="1.0" encoding="UTF-8"?>
<svg xmlns="http://www.w3.org/2000/svg" width="55" height="55" viewBox="0 0 512 512" style="filter: drop-shadow(0 2px 8px rgba(30,43,60,0.25));">
  <path fill="#ececec" d="M127.5,109.2c7.3,1.5,10.9,2.3,18.2,3.9c11.4,2.1,21.8-5.6,24.8-16.4c3-11.1,4.7-16.6,8.5-27.5   c3.6-10.7-0.6-23-11.2-27.7c-6.3-2.6-9.4-3.9-15.7-6.4c-15.3-6.3-68.4-25.4-87.4,27.5C53,106.6,46.9,151,46.5,195.4   c0.4,44.4,6.5,88.7,18.2,132.9c19,52.9,72.1,33.8,87.4,27.5c6.3-2.6,9.4-3.9,15.7-6.4c10.6-4.7,14.8-17.1,11.2-27.7   c-3.8-10.9-5.5-16.4-8.5-27.5c-3-10.8-13.4-18.5-24.8-16.4c-7.3,1.5-10.9,2.3-18.2,3.9c-6.2,1.3-12.5-3.5-13.9-10.9   c-4.2-25.3-6.4-50.3-6.7-75.3c0.3-25,2.5-50.1,6.7-75.3C115,112.7,121.3,107.9,127.5,109.2z"/>
  <path fill="#ececec" d="M447.3,183.7c-19-52.9-72.1-33.8-87.4-27.5c-6.3,2.6-9.4,3.9-15.7,6.4c-10.6,4.7-14.8,17.1-11.2,27.7   c3.8,10.9,5.5,16.4,8.5,27.5c3,10.8,13.4,18.5,24.8,16.4c7.3-1.5,10.9-2.3,18.2-3.9c6.2-1.3,12.5,3.5,13.9,10.9   c4.2,25.3,6.4,50.3,6.7,75.3c-0.3,25-2.5,50.1-6.7,75.3c-1.3,7.3-7.7,12.2-13.9,10.9c-7.3-1.5-10.9-2.3-18.2-3.9   c-11.4-2.1-21.8,5.6-24.8,16.4c-3,11.1-4.7,16.6-8.5,27.5c-3.6,10.7,0.6,23,11.2,27.7c6.3,2.6,9.4,3.9,15.7,6.4   c15.3,6.3,68.4,25.4,87.4-27.5c11.7-44.2,17.8-88.5,18.2-132.9C465.1,272.2,459,227.9,447.3,183.7z"/>
  <path fill="#c68c10" d="M257.4,142c8.3,4.5,17.8,7.1,28,7.1c32.3,0,58.4-26.2,58.4-58.4s-26.2-58.4-58.4-58.4   c-32.3,0-58.4,26.2-58.4,58.4c0,7.8,1.5,15.1,4.2,21.9l-34.7,41.5L257.4,142z M288.1,97.7h-5.5c-9.9,0-18-8.1-18-18   c0-8.4,5.9-15.5,13.7-17.5v-3.4c0-3.9,3.1-7,7-7s7,3.1,7,7v2.9h6.7c3.9,0,7,3.1,7,7s-3.1,7-7,7h-16.5c-2.2,0-4,1.8-4,4s1.8,4,4,4   h5.5c9.9,0,18,8.1,18,18c0,8.4-5.9,15.5-13.7,17.5v3.4c0,3.9-3.1,7-7,7s-7-3.1-7-7v-2.9h-6.7c-3.9,0-7-3.1-7-7s3.1-7,7-7h16.5   c2.2,0,4-1.8,4-4S290.3,97.7,288.1,97.7z"/>
  <path fill="#c68c10" d="M309,292.5c2.7-6.8,4.2-14.2,4.2-21.9c0-32.3-26.2-58.4-58.4-58.4c-32.3,0-58.4,26.2-58.4,58.4   c0,32.3,26.2,58.4,58.4,58.4c10.1,0,19.7-2.6,28-7.1l61,12L309,292.5z M287,257.8l-35.6,35.6c-1.4,1.4-3.2,2.1-5,2.1   s-3.6-0.7-5-2.1l-18.8-18.8c-2.7-2.7-2.7-7.2,0-9.9c2.7-2.7,7.2-2.7,9.9,0l13.8,13.8l30.6-30.6c2.7-2.7,7.2-2.7,9.9,0   C289.7,250.6,289.7,255,287,257.8z"/>
</svg>
