<?xml version="1.0" encoding="UTF-8"?>
<svg xmlns="http://www.w3.org/2000/svg"
     width="76" height="76" viewBox="0 0 64 64"
     style="filter: drop-shadow(0 2px 8px rgba(30,43,60,0.25));">

  <!-- Schatten des Rechtecks -->
  <path opacity="0.1" fill="#231F20"
        d="M46,45c0,2.2-1.8,4-4,4H22c-2.2,0-4-1.8-4-4V25c0-2.2,1.8-4,4-4h20c2.2,0,4,1.8,4,4V45z"/>

  <!-- Das Kästchen (mit dünnerem Rand gezeichnet) -->
  <path fill="none" stroke="#ececec" stroke-width="2"
        d="M22,45c-1.1,0-2-0.9-2-2V23c0-1.1,0.9-2,2-2h20c1.1,0,2,0.9,2,2v20
           c0,1.1-0.9,2-2,2H22z"/>

  <!-- Schatten des Hakens -->
  <path opacity="0.1" fill="#231F20"
        d="M32.5,41c-0.6,0-1.2-0.3-1.6-0.8l-6.1-8c-0.7-0.9-0.5-2.1,0.4-2.8
           c0.9-0.7,2.1-0.5,2.8,0.4l4.2,5.5
           c2.3-4.2,7.3-11.8,15.3-16.9c0.9-0.6,2.2-0.3,2.8,0.6
           c0.6,0.9,0.3,2.2-0.6,2.8
           c-10.2,6.6-15.2,18-15.3,18.1
           c-0.3,0.7-0.9,1.1-1.6,1.2C32.6,41,32.5,41,32.5,41z"/>

  <!-- Der Haken selbst -->
  <path fill="#c68c10"
        d="M32.5,39c-0.6,0-1.2-0.3-1.6-0.8l-6.1-8c-0.7-0.9-0.5-2.1,0.4-2.8
           c0.9-0.7,2.1-0.5,2.8,0.4l4.2,5.5
           c2.3-4.2,7.3-11.8,15.3-16.9c0.9-0.6,2.2-0.3,2.8,0.6
           c0.6,0.9,0.3,2.2-0.6,2.8
           c-10.2,6.6-15.2,18-15.3,18.1
           c-0.3,0.7-0.9,1.1-1.6,1.2C32.6,39,32.5,39,32.5,39z"/>
</svg>
