<?xml version="1.0" encoding="UTF-8"?>
<svg xmlns="http://www.w3.org/2000/svg"
     width="60" height="60" viewBox="0 0 512 512"
     style="filter: drop-shadow(0 2px 8px rgba(30,43,60,0.25));">
  <path style="fill:#FFFFFF" d="M256,504C119.248,504,8,392.744,8,256S119.248,8,256,8s248,111.248,248,248S392.752,504,256,504z"/>
  <path style="fill:#1f54b7" d="M256,16c132.336,0,240,107.664,240,240S388.336,496,256,496S16,388.336,16,256S123.664,16,256,16   M256,0C114.616,0,0,114.616,0,256s114.616,256,256,256s256-114.616,256-256S397.384,0,256,0L256,0z"/>
  <g>
    <circle style="fill:#2c66d2" cx="122.168" cy="176.16" r="15.568"/>
    <path style="fill:#2c66d2" d="M139.552,197.92h-34.768c-12.256,0-22.24,9.976-22.24,22.24v43.608c0,4.464,3.624,8.088,8.088,8.088   s8.088-3.624,8.088-8.088v-39.112h4.856v36.872c0,0.016-0.008,0.032-0.008,0.048v82.448c0,4.464,3.624,8.088,8.088,8.088   s8.088-3.624,8.088-8.088v-66.328h4.848v66.328c0,4.464,3.624,8.088,8.088,8.088s8.088-3.624,8.088-8.088v-66.328v-16.12v-36.928   h4.856v39.112c0,4.464,3.624,8.088,8.088,8.088s8.088-3.624,8.088-8.088v-43.6C161.792,207.904,151.816,197.92,139.552,197.92z"/>
  </g>
  <g>
    <circle style="fill:#999999" cx="211.352" cy="176.16" r="15.568"/>
    <path style="fill:#999999" d="M228.736,197.92h-34.768c-12.256,0-22.24,9.976-22.24,22.24v43.608c0,4.464,3.624,8.088,8.088,8.088   s8.088-3.624,8.088-8.088v-39.112h4.856v36.872c0,0.016-0.008,0.032-0.008,0.048v82.448c0,4.464,3.624,8.088,8.088,8.088   s8.088-3.624,8.088-8.088v-66.328h4.848v66.328c0,4.464,3.624,8.088,8.088,8.088s8.088-3.624,8.088-8.088v-66.328v-16.12v-36.928   h4.856v39.112c0,4.464,3.624,8.088,8.088,8.088s8.088-3.624,8.088-8.088v-43.6C250.968,207.904,240.992,197.92,228.736,197.92z"/>
    <circle style="fill:#1f54b7" cx="300.592" cy="176.16" r="15.568"/>
    <path style="fill:#1f54b7" d="M317.976,197.92h-34.768c-12.256,0-22.24,9.976-22.24,22.24v43.608c0,4.464,3.624,8.088,8.088,8.088   c4.464,0,8.088-3.624,8.088-8.088v-39.112H282v36.872c0,0.016-0.008,0.032-0.008,0.048v82.448c0,4.464,3.624,8.088,8.088,8.088   c4.464,0,8.088-3.624,8.088-8.088v-66.328h4.848v66.328c0,4.464,3.624,8.088,8.088,8.088s8.088-3.624,8.088-8.088v-66.328v-16.12   v-36.928h4.856v39.112c0,4.464,3.624,8.088,8.088,8.088c4.464,0,8.088-3.624,8.088-8.088v-43.6   C340.216,207.904,330.232,197.92,317.976,197.92z"/>
    <circle style="fill:#999999" cx="389.832" cy="176.16" r="15.568"/>
    <path style="fill:#999999" d="M407.216,197.92h-34.768c-12.256,0-22.24,9.976-22.24,22.24v43.608c0,4.464,3.624,8.088,8.088,8.088   c4.464,0,8.088-3.624,8.088-8.088v-39.112h4.856v36.872c0,0.016-0.008,0.032-0.008,0.048v82.448c0,4.464,3.624,8.088,8.088,8.088   c4.464,0,8.088-3.624,8.088-8.088v-66.328h4.848v66.328c0,4.464,3.624,8.088,8.088,8.088c4.464,0,8.088-3.624,8.088-8.088v-66.328   v-16.12v-36.928h4.856v39.112c0,4.464,3.624,8.088,8.088,8.088s8.088-3.624,8.088-8.088v-43.6   C429.456,207.904,419.48,197.92,407.216,197.92z"/>
  </g>
</svg>