<?xml version="1.0" encoding="UTF-8"?>
<svg xmlns="http://www.w3.org/2000/svg" height="80" width="80" viewBox="0 -10 125 125" style="filter: drop-shadow(0 2px 8px rgba(30,43,60,0.25));">
  <rect x="14" y="14" width="97" height="97" style="fill:none;"/>
  <path d="M61.5 89C78.3447 89 92 85.1672 92 80.4393C92 76.3137 81.6027 72.8697 67.7617 72.0591C67.0711 72.0186 66.4107 72.3465 66.0182 72.9162L62.7467 77.6653C61.953 78.8175 60.2518 78.8195 59.4554 77.6692L56.1957 72.9612C55.7998 72.3894 55.1338 72.0629 54.4398 72.109C40.9993 73.0031 31 76.3934 31 80.4393C31 85.1672 44.6553 89 61.5 89Z" fill="url(#paint0_linear)"/>
  <path style="fill:#26ba89;" d="M91 81C91 81.6661 90.5094 82.5307 89.0502 83.499C87.6296 84.4417 85.5079 85.3295 82.7965 86.0906C77.3876 87.6087 69.8578 88.5607 61.5 88.5607V90.5607C69.9869 90.5607 77.7071 89.5964 83.337 88.0162C86.145 87.228 88.49 86.2711 90.1561 85.1655C91.7837 84.0854 93 82.6979 93 81H91ZM61.5 88.5607C53.1422 88.5607 45.6124 87.6087 40.2035 86.0906C37.4921 85.3295 35.3704 84.4417 33.9498 83.499C32.4906 82.5307 32 81.6661 32 81H30C30 82.6979 31.2163 84.0854 32.8439 85.1655C34.51 86.2711 36.855 87.228 39.663 88.0162C45.2929 89.5964 53.0131 90.5607 61.5 90.5607V88.5607Z"/>
  <path d="M75.5 59.1421C78 55.5 79.844 52.7814 80.6157 48.9018C81.3874 45.0222 80.9914 41.0009 79.4776 37.3463C77.9638 33.6918 75.4004 30.5682 72.1114 28.3706C68.8224 26.173 64.9556 25 61 25C57.0444 25 53.1776 26.173 49.8886 28.3706C46.5996 30.5682 44.0362 33.6918 42.5224 37.3463C41.0087 41.0009 40.6126 45.0222 41.3843 48.9018C42.156 52.7814 44 55.5 46.5 59.1421" style="fill:none; stroke:#ececec; stroke-width:3; stroke-linecap:round; stroke-linejoin:round;"/>
  <path d="M43 53.5L61 82L79 53.5" style="fill:none; stroke:#ececec; stroke-width:3; stroke-linecap:round; stroke-linejoin:round;"/>
  <circle cx="61" cy="45" r="8" style="fill:none; stroke:#cfcfcf; stroke-width:2;"/>
  <defs>
    <linearGradient id="paint0_linear" x1="65.5" y1="68.5" x2="52" y2="118.5" gradientUnits="userSpaceOnUse">
      <stop offset="0.117083" style="stop-color:#34ECE1; stop-opacity:0;"/>
      <stop offset="1" style="stop-color:#34F0E5;"/>
    </linearGradient>
  </defs>
</svg>