<?xml version="1.0" encoding="UTF-8"?>
<svg xmlns="http://www.w3.org/2000/svg"
     height="47" width="47" viewBox="0 0 53 53"
     style="filter: drop-shadow(0 2px 8px rgba(30,43,60,0.25));">
  <rect x="27" y="28" style="fill:#ececec" width="2" height="18"/>
  <rect x="37.5" y="2.893" transform="matrix(0.7071 0.7071 -0.7071 0.7071 20.8223 -23.2696)" style="fill:#ececec" width="2" height="21.213"/>
  <rect x="15" y="21.858" transform="matrix(0.7071 0.7071 -0.7071 0.7071 30.1421 -0.7696)" style="fill:#ececec" width="2" height="28.284"/>
  <rect x="10.722" y="13.5" transform="matrix(0.7071 0.7071 -0.7071 0.7071 15.6716 -8.8345)" style="fill:#ececec" width="15.556" height="2"/>
  <rect x="26.893" y="32.5" transform="matrix(0.7071 0.7071 -0.7071 0.7071 34.6716 -16.7046)" style="fill:#ececec" width="21.213" height="2"/>
  <circle style="fill:#cfcfcf" cx="48" cy="5" r="5"/>
  <circle style="fill:#fbfbfb" cx="28" cy="48" r="5"/>
  <circle style="fill:#e0a628" cx="5" cy="46" r="5"/>
  <circle style="fill:#fbfbfb" cx="12" cy="8" r="3"/>
  <circle style="fill:#fbfbfb" cx="44" cy="40" r="3"/>
  <circle style="fill:#c68c10" cx="28" cy="24" r="11"/>
</svg>