<?xml version="1.0" encoding="UTF-8"?>
<svg xmlns="http://www.w3.org/2000/svg"
     height="54" width="54" viewBox="0 0 512 512"
     style="filter: drop-shadow(0 2px 8px rgba(30,43,60,0.25));">
  <path style="fill:#c68c10" d="M243.9,379.6c-0.3-0.5-0.6-1.1-1-1.6c-7.3-11.9-22.4-17.5-35.2-11.1c-0.3,0.2-0.5,0.3-0.8,0.4   c-7.6,4-11.7,6.2-19.6,10.4c-7,3.7-16.2,0.1-20.3-8.2c-9.8-20.6-18.4-41.4-25.7-62.5c-2.9-8.3-5.6-16.7-8.1-25.1   c-5.2-18.8-9.4-37.8-12.8-57.2c-2-11.6-3.7-23.2-5.1-35c-0.9-9.2,4.9-17.2,12.8-17.8c1.3-0.1,2.4-0.2,3.5-0.3   c7-0.5,11.5-0.8,19.5-1.4c14.3-1.4,24.1-14.2,23.9-28.1c-0.2-12.3-0.2-19.3,0.4-30.1c0.1-1.8,0.2-3.6,0.3-5.6   c0.6-13.9-8.6-27.3-22.9-29.2c-4.3-0.5-7.6-0.8-10.8-1.2c-3-0.3-6.1-0.7-10.1-1.1c-20.4-2.2-90.4-6.8-94.9,62.8   c1.2,56.7,9.2,111.8,23.9,164.9c15.7,52.8,38.2,103.7,67.3,152.4c40.9,56.6,97.7,15.5,113.8,2.8c6.6-5.2,9.9-7.8,16.5-13   c4.4-3.7,7.1-8.4,8.4-13.5c1.9-7.8,0.3-16.5-4.5-23.4C254.6,396.7,250.7,390.7,243.9,379.6z"/>
  <path style="fill:#c68c10" d="M279.6,274h-38.7c-3.9,0-7,3.1-7,7s3.1,7,7,7h25.2v16.1c0,3.9,3.1,7,7,7c3.9,0,7-3.1,7-7V288   c17.8-0.3,32.2-14.8,32.2-32.7c0-18-14.7-32.7-32.7-32.7h-13c-10.3,0-18.7-8.4-18.7-18.7c0-10.3,8.4-18.7,18.7-18.7h38.7   c3.9,0,7-3.1,7-7c0-3.9-3.1-7-7-7h-25.2v-16.1c0-3.9-3.1-7-7-7c-3.9,0-7,3.1-7,7v16.1c-17.8,0.3-32.2,14.8-32.2,32.7   c0,18,14.7,32.7,32.7,32.7h13c10.3,0,18.7,8.4,18.7,18.7C298.3,265.6,289.9,274,279.6,274z"/>
  <path style="fill:#ececec" d="M273.1,27.8c-42.8,0-82.6,13.3-115.2,36.1c17.6,3.8,30.4,19.2,31.8,37.7c24-15.7,52.6-24.8,83.4-24.8   c84.4,0,152.8,68.4,152.8,152.8c0,84.4-68.4,152.8-152.8,152.8c-3.8,0-7.6-0.1-11.3-0.4c3.6,5.7,7,10.6,12.1,17.9l0.1,0.1   c6.4,9.3,9,20.5,7.3,31.3c107.7-4.3,193.6-92.9,193.6-201.6C474.9,118.2,384.6,27.8,273.1,27.8z"/>
</svg>