<?xml version="1.0" encoding="UTF-8"?>
<svg xmlns="http://www.w3.org/2000/svg" id="Layer_1" height="55" viewBox="-20 0 512 512" width="55" data-name="Layer 1">
  <path style="fill:#ececec;" d="m429.92 266.9h-12v-46.885a179.235 179.235 0 0 0 -58.585-132.364l8.07-8.88a191.251 191.251 0 0 1 62.515 141.244z"/>
  <path style="fill:#ececec;" d="m60.29 267.518h-12v-47.5a191.3 191.3 0 0 1 62.163-140.927l8.094 8.86a179.271 179.271 0 0 0 -58.257 132.064z"/>
  <path style="fill:#26ba89;" d="m363.71 85.52c-.22.27-.46.54-.7.81a19.132 19.132 0 0 1 -25.49 2.56 165.3 165.3 0 0 0 -196.83 0 18.889 18.889 0 0 1 -11.27 3.72 19.24 19.24 0 0 1 -14.22-6.28c-.24-.27-.48-.54-.7-.81a19.179 19.179 0 0 1 3.38-27.51 203.653 203.653 0 0 1 242.45 0 19.179 19.179 0 0 1 3.38 27.51z"/>
  <path style="fill:#cfcfcf;" d="m145.662 83.208a19.551 19.551 0 0 1 -14.448-6.381c-.244-.274-.487-.548-.711-.823a19.487 19.487 0 0 1 3.434-27.951q2.976-2.2 6.034-4.3a204.581 204.581 0 0 0 -22.091 14.257 19.179 19.179 0 0 0 -3.38 27.51c.22.27.46.54.7.81a19.24 19.24 0 0 0 14.22 6.28 18.889 18.889 0 0 0 11.27-3.72q4.287-3.178 8.784-6.077a19.284 19.284 0 0 1 -3.812.395z"/>
  <path style="fill:#ececec;" d="m344.365 484.06h-64.429v-12h64.429a32.437 32.437 0 0 0 32.4-32.4v-24.147h12v24.147a44.451 44.451 0 0 1 -44.4 44.4z"/>
  <path style="fill:#3cc799;" d="m247.04 462.12h34.56v31.88h-34.56z"/>
  <path style="fill:#3cc799;" d="m247.04 462.12v31.88h-25.67a15.94 15.94 0 0 1 0-31.88z"/>
  <path style="fill:#cfcfcf;" d="m445.77 280.17-.77.37v105.56l.77.37a55.462 55.462 0 0 0 0-106.3z"/>
  <path style="fill:#ececec;" d="m451.64 307.21v52.21a57.732 57.732 0 0 1 -57.5 57.76v-167.72a57.732 57.732 0 0 1 57.5 57.75z"/>
  <path style="fill:#ececec;" d="m84.07 249.46v167.72a57.756 57.756 0 0 1 -57.5-57.76v-52.21a57.754 57.754 0 0 1 57.5-57.75z"/>
  <path style="fill:#cfcfcf;" d="m57 359.42v-52.21a58.4 58.4 0 0 1 27-49.2v-8.55c-32 .14-57 25.94-57 57.75v52.21c0 31.82 25 57.62 57 57.76v-8.555a58.411 58.411 0 0 1 -27-49.205z"/>
  <path style="fill:#3cc799;" d="m395.14 249.46v167.72h-29.8v-167.72z"/>
  <path style="fill:#3cc799;" d="m112.87 249.46v167.72h-29.8v-167.72z"/>
  <g style="fill:#3cc799;">
    <path d="m59.282 383.913a6 6 0 0 1 -6-6v-75.807a6 6 0 0 1 12 0v75.807a6 6 0 0 1 -6 6z"/>
    <path d="m59.282 287.726a6 6 0 0 1 -6-6v-4.834a6 6 0 0 1 12 0v4.834a6 6 0 0 1 -6 6z"/>
  </g>
</svg>