<svg xmlns="http://www.w3.org/2000/svg" version="1.1" xmlns:xlink="http://www.w3.org/1999/xlink" width="24" height="24" x="0" y="0" viewBox="0 0 24 24" style="enable-background:new 0 0 512 512" xml:space="preserve" class=""><g><path d="m7.281 9.838 1.416-.806A4.48 4.48 0 0 0 11 10.379V12h2v-1.621a4.48 4.48 0 0 0 2.303-1.347l1.416.806.99-1.738-1.42-.809c.124-.412.211-.839.211-1.291s-.087-.88-.211-1.291l1.42-.809-.99-1.738-1.416.806A4.487 4.487 0 0 0 13 1.621V0h-2v1.621a4.48 4.48 0 0 0-2.303 1.347l-1.416-.806L6.292 3.9l1.42.809c-.125.412-.212.84-.212 1.292s.087.88.212 1.292l-1.42.809.989 1.738zM12 3.5c1.379 0 2.5 1.122 2.5 2.5S13.379 8.5 12 8.5 9.5 7.378 9.5 6s1.122-2.5 2.5-2.5zm5 11a2.5 2.5 0 1 1 5 0 2.5 2.5 0 0 1-5 0zm7 6V24h-2v-3.5c0-.275-.225-.5-.5-.5h-4c-.275 0-.5.225-.5.5V24h-2v-1a1 1 0 0 0-1-1h-4c-.551 0-1 .448-1 1v1H7v-3.5a.5.5 0 0 0-.5-.5h-4a.5.5 0 0 0-.5.5V24H0v-3.5C0 19.121 1.122 18 2.5 18h4c1.274 0 2.316.961 2.469 2.194A2.969 2.969 0 0 1 10 20h4c.364 0 .708.075 1.031.194A2.495 2.495 0 0 1 17.5 18h4c1.379 0 2.5 1.121 2.5 2.5zm-22-6a2.5 2.5 0 1 1 5 0 2.5 2.5 0 0 1-5 0zm10-.5a2.5 2.5 0 1 1 0 5 2.5 2.5 0 0 1 0-5z" fill="#ececec" opacity="1" data-original="#000000" class=""></path></g></svg>