<svg id="Capa_1" enable-background="new 0 0 512 512" viewBox="0 0 512 512" xmlns="http://www.w3.org/2000/svg"><g><g><path d="m60.377 15.453v481.095c0 8.534 6.918 15.453 15.453 15.453h360.34c8.534 0 15.453-6.918 15.453-15.453v-481.095c0-8.535-6.919-15.453-15.453-15.453h-360.34c-8.534 0-15.453 6.918-15.453 15.453z" fill="#eaf6ff"/></g><g><g><path d="m233.336 197.208h-106.109c-8.534 0-15.453-6.918-15.453-15.453v-30.563c0-17.186 13.932-31.118 31.118-31.118h74.777c17.186 0 31.118 13.932 31.118 31.118v30.563c.002 8.535-6.917 15.453-15.451 15.453z" fill="#d9b1ee"/></g><g><circle cx="180.282" cy="88.591" fill="#bb5d4c" r="38.567"/></g></g><g><path d="m116.926 243.903c-2.845 0-5.151 2.306-5.151 5.151v34.104c0 2.845 2.306 5.151 5.151 5.151h72.082v-44.406z" fill="#fedf30"/></g><path d="m188.008 266.675h-76.233v16.483c0 2.845 2.306 5.151 5.151 5.151h71.083v-21.634z" fill="#fed402"/><g><path d="m116.926 325.749c-2.845 0-5.151 2.306-5.151 5.151v34.104c0 2.845 2.306 5.151 5.151 5.151h72.082v-44.406z" fill="#fedf30"/></g><g><path d="m399.965 110.425h-108.679c-3.126 0-5.66-2.534-5.66-5.66v-37.477c0-3.126 2.534-5.66 5.66-5.66h108.679c3.126 0 5.66 2.534 5.66 5.66v37.477c.001 3.126-2.533 5.66-5.66 5.66z" fill="#fdb97e"/></g><g><path d="m400.226 197.574h-109.2c-4.142 0-7.5-3.358-7.5-7.5s3.358-7.5 7.5-7.5h109.199c4.142 0 7.5 3.358 7.5 7.5s-3.357 7.5-7.499 7.5z" fill="#8ac9fe"/></g><g><path d="m400.226 153.169h-109.2c-4.142 0-7.5-3.358-7.5-7.5s3.358-7.5 7.5-7.5h109.199c4.142 0 7.5 3.358 7.5 7.5s-3.357 7.5-7.499 7.5z" fill="#8ac9fe"/></g><g><path d="m116.926 407.594c-2.845 0-5.151 2.306-5.151 5.151v34.104c0 2.845 2.306 5.151 5.151 5.151h72.082v-44.406z" fill="#fedf30"/></g><g><path d="m395.074 243.903h-207.066v44.406h207.066c2.845 0 5.151-2.306 5.151-5.151v-34.104c0-2.844-2.306-5.151-5.151-5.151z" fill="#86e8d0"/></g><g><path d="m395.074 325.749h-207.066v44.406h207.066c2.845 0 5.151-2.306 5.151-5.151v-34.104c0-2.845-2.306-5.151-5.151-5.151z" fill="#86e8d0"/></g><g><path d="m395.074 407.594h-207.066v44.406h207.066c2.845 0 5.151-2.306 5.151-5.151v-34.104c0-2.844-2.306-5.151-5.151-5.151z" fill="#86e8d0"/></g><g><path d="m395.074 243.903h-33.481v14.892c0 4.352-3.528 7.88-7.88 7.88h-165.705v21.634h207.066c2.845 0 5.151-2.306 5.151-5.151v-34.104c0-2.844-2.306-5.151-5.151-5.151z" fill="#5de1c4"/></g><g><path d="m436.17 0h-23.179v467.548c0 4.352-3.528 7.88-7.88 7.88h-344.734v21.119c0 8.534 6.918 15.453 15.453 15.453h360.34c8.534 0 15.453-6.918 15.453-15.453v-481.094c0-8.535-6.919-15.453-15.453-15.453z" fill="#d8ecfe"/></g><g><g><g><path d="m217.883 120.08v40.533c0 4.352-3.528 7.88-7.88 7.88h-98.229v13.263c0 8.534 6.918 15.453 15.453 15.453h106.109c8.534 0 15.453-6.918 15.453-15.453v-30.563c0-17.115-13.818-30.998-30.906-31.113z" fill="#cb97e7"/></g><g><path d="m180.282 50.024c-.92 0-1.83.044-2.734.107 10.629 6.868 17.672 18.812 17.672 32.408 0 20.38-15.81 37.056-35.833 38.46 6.022 3.891 13.192 6.159 20.895 6.159 21.3 0 38.567-17.267 38.567-38.567s-17.267-38.567-38.567-38.567z" fill="#a44f3e"/></g></g></g><path d="m188.008 348.521h-76.233v16.483c0 2.845 2.306 5.151 5.151 5.151h71.083v-21.634z" fill="#fed402"/><g><path d="m399.965 61.627h-20.377v16.143c0 4.783-3.877 8.66-8.66 8.66h-85.303v18.335c0 3.126 2.534 5.66 5.66 5.66h108.679c3.126 0 5.66-2.534 5.66-5.66v-37.477c.002-3.126-2.533-5.661-5.659-5.661z" fill="#fea95c"/></g><path d="m111.775 430.366v16.483c0 2.845 2.306 5.151 5.151 5.151h71.083v-21.634z" fill="#fed402"/><g><path d="m395.074 325.749h-33.481v14.892c0 4.352-3.528 7.88-7.88 7.88h-165.705v21.634h207.066c2.845 0 5.151-2.306 5.151-5.151v-34.104c0-2.845-2.306-5.151-5.151-5.151z" fill="#5de1c4"/></g><g><path d="m395.074 407.594h-33.481v14.892c0 4.352-3.528 7.88-7.88 7.88h-165.705v21.634h207.066c2.845 0 5.151-2.306 5.151-5.151v-34.104c0-2.844-2.306-5.151-5.151-5.151z" fill="#5de1c4"/></g></g><g/><g/><g/><g/><g/><g/><g/><g/><g/><g/><g/><g/><g/><g/><g/></svg>