<svg xmlns="http://www.w3.org/2000/svg" height="64" width="64" viewBox="0 0 100 100">
  <!-- Definiert eine runde Maske -->
  <defs>
    <clipPath id="circle-clip-usa">
      <circle cx="50" cy="50" r="50"/>
    </clipPath>
  </defs>

  <!-- Gruppe für die Flagge, die von der runden Maske zugeschnitten wird -->
  <g clip-path="url(#circle-clip-usa)">
    
    <!-- Hintergrund mit 13 abwechselnd rot-weissen Streifen -->
    <g>
        <rect width="100" height="7.7" y="0" style="fill:#B22234;"/>
        <rect width="100" height="7.7" y="7.7" style="fill:#FFFFFF;"/>
        <rect width="100" height="7.7" y="15.4" style="fill:#B22234;"/>
        <rect width="100" height="7.7" y="23.1" style="fill:#FFFFFF;"/>
        <rect width="100" height="7.7" y="30.8" style="fill:#B22234;"/>
        <rect width="100" height="7.7" y="38.5" style="fill:#FFFFFF;"/>
        <rect width="100" height="7.7" y="46.2" style="fill:#B22234;"/>
        <rect width="100" height="7.7" y="53.9" style="fill:#FFFFFF;"/>
        <rect width="100" height="7.7" y="61.6" style="fill:#B22234;"/>
        <rect width="100" height="7.7" y="69.3" style="fill:#FFFFFF;"/>
        <rect width="100" height="7.7" y="77" style="fill:#B22234;"/>
        <rect width="100" height="7.7" y="84.7" style="fill:#FFFFFF;"/>
        <rect width="100" height="7.7" y="92.4" style="fill:#B22234;"/>
    </g>

    <!-- Blaues Rechteck (Kanton) oben links -->
    <rect width="50" height="53.9" x="0" y="0" style="fill:#3C3B6E;"/>

    <!-- Vereinfachte Darstellung der Sterne -->
    <g style="fill:#FFFFFF;" transform="translate(4, 4) scale(0.8)">
      <circle cx="6" cy="6" r="2.5"/>
      <circle cx="18" cy="6" r="2.5"/>
      <circle cx="30" cy="6" r="2.5"/>
      <circle cx="42" cy="6" r="2.5"/>
      <circle cx="54" cy="6" r="2.5"/>

      <circle cx="12" cy="15" r="2.5"/>
      <circle cx="24" cy="15" r="2.5"/>
      <circle cx="36" cy="15" r="2.5"/>
      <circle cx="48" cy="15" r="2.5"/>

      <circle cx="6" cy="24" r="2.5"/>
      <circle cx="18" cy="24" r="2.5"/>
      <circle cx="30" cy="24" r="2.5"/>
      <circle cx="42" cy="24" r="2.5"/>
      <circle cx="54" cy="24" r="2.5"/>

      <circle cx="12" cy="33" r="2.5"/>
      <circle cx="24" cy="33" r="2.5"/>
      <circle cx="36" cy="33" r="2.5"/>
      <circle cx="48" cy="33" r="2.5"/>

      <circle cx="6" cy="42" r="2.5"/>
      <circle cx="18" cy="42" r="2.5"/>
      <circle cx="30" cy="42" r="2.5"/>
      <circle cx="42" cy="42" r="2.5"/>
      <circle cx="54" cy="42" r="2.5"/>
      
       <circle cx="12" cy="51" r="2.5"/>
      <circle cx="24" cy="51" r="2.5"/>
      <circle cx="36" cy="51" r="2.5"/>
      <circle cx="48" cy="51" r="2.5"/>
    </g>
  </g>

  <!-- Feiner Rand um den Kreis -->
  <circle 
    style="fill:none; stroke:#333333; stroke-width:2;" 
    cx="50" 
    cy="50" 
    r="49"
  />
</svg>