<svg xmlns="http://www.w3.org/2000/svg" xmlns:xlink="http://www.w3.org/1999/xlink" height="64" width="64" viewBox="0 0 100 100">
  <!-- Definiert eine runde Maske -->
  <defs>
    <clipPath id="circle-clip-bosnia">
      <circle cx="50" cy="50" r="50"/>
    </clipPath>
    <!-- Definiert die Form eines 5-zackigen Sterns -->
    <path id="star-bosnia" d="M10 0 L13 6 L20 7 L15 12 L16 19 L10 16 L4 19 L5 12 L0 7 L7 6 Z"/>
  </defs>

  <!-- Gruppe für die Flagge, die von der runden Maske zugeschnitten wird -->
  <g clip-path="url(#circle-clip-bosnia)">
    
    <!-- Blauer Hintergrund -->
    <rect width="100" height="100" style="fill:#002395;"/>

    <!-- Gelbes Dreieck -->
    <polygon points="100,0 20,100 100,100" style="fill:#FFC72C;"/>

    <!-- Weisse Sterne -->
    <g style="fill:#FFFFFF;">
        <use xlink:href="#star-bosnia" transform="translate(18, 88) scale(0.8) rotate(-51)"/>
        <use xlink:href="#star-bosnia" transform="translate(29, 76) scale(0.8) rotate(-51)"/>
        <use xlink:href="#star-bosnia" transform="translate(40, 64) scale(0.8) rotate(-51)"/>
        <use xlink:href="#star-bosnia" transform="translate(51, 52) scale(0.8) rotate(-51)"/>
        <use xlink:href="#star-bosnia" transform="translate(62, 40) scale(0.8) rotate(-51)"/>
        <use xlink:href="#star-bosnia" transform="translate(73, 28) scale(0.8) rotate(-51)"/>
        <use xlink:href="#star-bosnia" transform="translate(84, 16) scale(0.8) rotate(-51)"/>
    </g>
    
  </g>

  <!-- Feiner Rand um den Kreis -->
  <circle 
    style="fill:none; stroke:#333333; stroke-width:2;" 
    cx="50" 
    cy="50" 
    r="49"
  />
</svg>