<svg xmlns="http://www.w3.org/2000/svg" height="64" width="64" viewBox="0 0 100 100">
  <!-- Definiert eine runde Maske -->
  <defs>
    <clipPath id="circle-clip-mexico">
      <circle cx="50" cy="50" r="50"/>
    </clipPath>
  </defs>

  <!-- Gruppe für die Flagge, die von der runden Maske zugeschnitten wird -->
  <g clip-path="url(#circle-clip-mexico)">
    
    <!-- Grüner Streifen (links) -->
    <rect width="33.33" height="100" x="0" style="fill:#006847;"/>
    <!-- Weisser Streifen (mitte) -->
    <rect width="33.33" height="100" x="33.33" style="fill:#FFFFFF;"/>
    <!-- Roter Streifen (rechts) -->
    <rect width="33.34" height="100" x="66.66" style="fill:#CE1126;"/>

    <!-- Wappen (vereinfacht) -->
    <g transform="translate(50 50) scale(1.2) translate(-25 -25)">
        <!-- Kaktus -->
        <path d="M25 40 Q20 35 20 28 Q20 35 15 40 Z" style="fill:#006847;"/>
        <path d="M25 40 Q30 35 30 28 Q30 35 35 40 Z" style="fill:#006847;"/>
        <path d="M25 28 Q20 23 20 18 L30 18 Q30 23 25 28 Z" style="fill:#006847;"/>
        
        <!-- Adler -->
        <path d="M25 10 C 20 10 15 20 25 30 C 35 20 30 10 25 10" style="fill:#614126;"/>
        
        <!-- Schlange -->
        <path d="M28 25 C 30 22 28 18 25 18" style="fill:none; stroke:#614126; stroke-width:1.5;"/>
    </g>
  </g>

  <!-- Feiner Rand um den Kreis -->
  <circle 
    style="fill:none; stroke:#333333; stroke-width:2;" 
    cx="50" 
    cy="50" 
    r="49"
  />
</svg>