<svg xmlns="http://www.w3.org/2000/svg" height="64" width="64" viewBox="0 0 100 100">
  <!-- Definiert eine runde Maske -->
  <defs>
    <clipPath id="circle-clip-serbia-detailed">
      <circle cx="50" cy="50" r="50"/>
    </clipPath>
  </defs>

  <!-- Gruppe für die Flagge, die von der runden Maske zugeschnitten wird -->
  <g clip-path="url(#circle-clip-serbia-detailed)">
    
    <!-- Roter Streifen (oben) -->
    <rect width="100" height="33.33" y="0" style="fill:#C6363C;"/>
    <!-- Blauer Streifen (mitte) -->
    <rect width="100" height="33.33" y="33.33" style="fill:#0C4076;"/>
    <!-- Weisser Streifen (unten) -->
    <rect width="100" height="33.34" y="66.66" style="fill:#FFFFFF;"/>
    
    <!-- Wappen, skaliert und positioniert -->
    <g transform="translate(2, 22) scale(1.7)">
      <path style="fill:#C6363C;" d="M3.27,0.24h49.13c1.67,0,3.03,1.36,3.03,3.03v32.33c0,1.67-1.37,3.03-3.03,3.03H3.27 c-1.67,0-3.03-1.37-3.03-3.03V3.27C0.24,1.6,1.6,0.24,3.27,0.24L3.27,0.24z"/>
      <path style="fill:#184275;" d="M55.44,12.7H0.24v22.91c0,1.67,1.37,3.03,3.03,3.03h49.13c1.67,0,3.03-1.37,3.03-3.03V12.7L55.44,12.7z"/>
      <path style="fill:#FFFFFF;" d="M55.44,26.12H0.24v9.49c0,1.67,1.37,3.03,3.03,3.03h49.13c1.67,0,3.03-1.37,3.03-3.03V26.12L55.44,26.12z"/>
      <path style="fill:#EDB92B;" d="M24.48,8.86c0.08-0.18,0.02-0.44-0.01-0.5c-0.01-0.03,0.03-0.09,0.05-0.12c0.57-0.81,0.58-0.88,0.19-1.18 c-0.36-0.27-1.16-0.54-1.74-0.72c-0.12-0.09-0.2-0.21-0.3-0.32c1.11,0.08,2.3,0.52,2.91,1.05c0.32,0.28-0.07,0.83-0.54,1.68 C24.73,8.98,24.59,9.07,24.48,8.86L24.48,8.86L24.48,8.86z"/>
      <path style="fill:#EDB92B;" d="M24.65,8.93c0.02-0.07,0.04-0.14,0.06-0.21c0.02-0.12,0.01-0.24-0.03-0.36c0.13-0.19,0.28-0.39,0.39-0.59 c0.08-0.14,0.14-0.3,0.09-0.46c-0.05-0.17-0.2-0.29-0.34-0.4c-0.16-0.13-0.38-0.24-0.6-0.33c-0.5-0.2-0.89-0.3-1.18-0.31l0.18,0.17 c0.54,0.17,1.17,0.4,1.48,0.63c0.39,0.3,0.38,0.37-0.19,1.18c-0.02,0.02-0.06,0.09-0.05,0.12c0.03,0.06,0.08,0.32-0.01,0.51 C24.51,8.97,24.58,8.92,24.65,8.93L24.65,8.93L24.65,8.93z"/>
      <path style="fill:#EDB92B;" d="M19.81,5.34c-0.01-0.1,0-0.08,0.02,0.07c0.02-0.03,0.04-0.05,0.06-0.04c0.05,0,0.07,0.07,0.08,0.23 c0,0.04-0.01,0.08-0.01,0.12c1.47-0.03,2.34,0.19,2.56,0.61c0.18,0.35-0.13,0.93-0.6,1.59C21.87,8,21.87,8,21.92,8.06 c0.08,0.1,0.17,0.26,0.1,0.4c0.29,0.16,0.63,0.2,0.93,0.07C23,8.4,23.11,8.33,23.19,8.27c0.02-0.01,0.08-0.04,0.09-0.06 c0.16-0.5,0.31-0.96,0.45-1.39C24.15,5.47,20.39,5.34,19.81,5.34L19.81,5.34L19.81,5.34z"/>
      <path style="fill:#EDB92B;" d="M23.69,11.16c0.15-0.29,0.3-0.58,0.5-0.82c-0.52,0.39-0.79,0.33-0.83-0.17c-0.03-0.01-0.07-0.01-0.11-0.01 c-0.4,0.62-0.79,0.53-1.16-0.26c-0.51,0.81-0.95,0.79-1.3-0.05c-0.59,0.74-1.09,0.74-1.49,0.02V9.77c0.02,0.01,0.01,0.01-0.05,0.01 l-0.01-0.02c-0.02,0-0.03,0.01-0.04,0.01c-0.01,0-0.03-0.01-0.04-0.01l-0.01,0.02c-0.05,0.01-0.07,0-0.05-0.01v0.09 c-0.4,0.72-0.9,0.72-1.49-0.02c-0.35,0.84-0.78,0.86-1.3,0.05c-0.38,0.79-0.76,0.87-1.16,0.26c-0.04,0-0.08,0-0.11,0.01 c-0.04,0.5-0.31,0.56-0.83,0.17c0.2,0.25,0.36,0.53,0.5,0.82c1.5-0.06,3-0.14,4.5-0.22C20.69,11.02,22.19,11.1,23.69,11.16 L23.69,11.16L23.69,11.16z"/>
      <path style="fill:#EDB92B;" d="M24.3,9.95l-0.16-0.03c-0.31,0.77-0.6,0.78-0.65,0.06c0.07-0.03,0.04-0.15,0.12-0.1 c0.04,0.03,0.09-0.05,0.06-0.09c-0.09-0.07-0.17-0.05-0.25,0.02c-0.04-0.12-0.13-0.17-0.24-0.12c-0.05,0.02-0.03,0.11,0.02,0.1 c0.08-0.01,0.05,0.07,0.07,0.13c-0.56,0.73-0.84,0.64-0.77-0.31c-0.13-0.03-0.29-0.05-0.43-0.1c-0.51,1.03-0.88,1.07-1.17,0.15 c0.06-0.05,0.05-0.17,0.14-0.13c0.05,0.02,0.1-0.07,0.05-0.11c-0.11-0.09-0.23-0.06-0.3,0.06c-0.06-0.13-0.18-0.17-0.29-0.09 c-0.05,0.03-0.02,0.13,0.03,0.11c0.1-0.03,0.06,0.11,0.14,0.16c-0.23,0.87-1.37,0.93-1.18-0.36c-0.1,0-0.2,0.01-0.29,0.01 c-0.09,0-0.19-0.01-0.29-0.01c0.19,1.28-0.96,1.23-1.18,0.36c0.08-0.05,0.03-0.18,0.14-0.16c0.05,0.02,0.09-0.08,0.03-0.11 c-0.12-0.08-0.23-0.03-0.29,0.09c-0.08-0.12-0.2-0.15-0.3-0.06c-0.05,0.04,0,0.13,0.05,0.11c0.09-0.04,0.07,0.08,0.14,0.13 c-0.3,0.92-0.66,0.88-1.17-0.15c-0.14,0.05-0.29,0.08-0.43,0.1c0.07,0.95-0.22,1.04-0.77,0.31c0.02-0.06-0.01-0.14,0.07-0.13 c0.05,0,0.07-0.08,0.02-0.1c-0.11-0.05-0.2,0.01-0.24,0.12c-0.08-0.07-0.16-0.08-0.25-0.02c-0.03,0.04,0.02,0.11,0.06,0.09 c0.08-0.05,0.05,0.07,0.12,0.1c-0.05,0.73-0.33,0.71-0.65-0.06l-0.16,0.03c0,0.18,0.06,0.37,0.17,0.51 c0.47,0.6,0.82,0.46,0.83-0.21c0.62,0.72,1.08,0.63,1.17-0.13c0.52,0.96,1.35,0.5,1.37-0.08c0.23,0.85,1.49,0.84,1.57-0.13 c0.08,0.97,1.35,0.98,1.57,0.13c0.02,0.58,0.85,1.04,1.37,0.08c0.08,0.76,0.55,0.85,1.17,0.13c0.01,0.67,0.36,0.8,0.83,0.21 C24.24,10.32,24.31,10.13,24.3,9.95L24.3,9.95L24.3,9.95z"/>
      <path style="fill:#EDB92B;" d="M20.25,8.97c-0.07-0.04-0.08-0.03-0.11-0.06c-0.03-0.04-0.03-0.1-0.02-0.15c0.04-0.23-0.1-0.2-0.26-0.1 c-0.08,0.05-0.16,0.17-0.23,0.23c-0.07,0.06-0.12,0.07-0.14,0.09c0,0.09,0,0.17,0,0.2l0,0c0,0.03,0,0.11,0,0.2 c0.02,0.02,0.07,0.03,0.14,0.09c0.07,0.06,0.15,0.18,0.23,0.23c0.16,0.1,0.3,0.14,0.26-0.1c-0.01-0.06-0.01-0.12,0.02-0.15 c0.02-0.03,0.04-0.02,0.11-0.06c0.05-0.03,0.08-0.06,0.1-0.1c0.02-0.04,0.01-0.08,0.01-0.12c0-0.04,0.01-0.08-0.01-0.12 C20.33,9.03,20.29,9,20.25,8.97L20.25,8.97z"/>
      <path style="fill:#20221D;" d="M19.49,9.22l0.01,0.04c0.17,0.02,0.3,0.09,0.42,0.19C19.84,9.33,19.67,9.25,19.49,9.22L19.49,9.22z"/>
      <path style="fill:#20221D;" d="M19.49,9.15l0.01-0.04c0.17-0.02,0.3-0.09,0.42-0.19C19.84,9.04,19.67,9.12,19.49,9.15L19.49,9.15z"/>
      <path style="fill:#EDB92B;" d="M20.12,8.65c-0.05,0.02-0.11,0.04-0.15,0.09c-0.07,0.07-0.02,0.18,0.07,0.29c0.03,0.03,0.04,0.1,0.04,0.16 c0,0.06-0.01,0.12-0.04,0.15c-0.09,0.11-0.14,0.22-0.07,0.29c0.05,0.04,0.1,0.07,0.15,0.09c0-0.03,0-0.06,0-0.11 c-0.01-0.06-0.01-0.12,0.02-0.15c0.02-0.03,0.04-0.02,0.11-0.06c0.04-0.03,0.08-0.06,0.1-0.1c0.02-0.04,0.01-0.08,0.01-0.12 c0-0.04,0.01-0.08-0.01-0.12c-0.02-0.04-0.06-0.07-0.1-0.1c-0.07-0.04-0.08-0.03-0.11-0.06c-0.03-0.04-0.03-0.1-0.02-0.15 C20.13,8.71,20.13,8.68,20.12,8.65L20.12,8.65L20.12,8.65z"/>
      <path style="fill:#EDB92B;" d="M13.91,8.86c-0.08-0.18-0.02-0.44,0.01-0.5c0.01-0.03-0.03-0.09-0.05-0.12c-0.57-0.81-0.58-0.88-0.19-1.18 c0.36-0.27,1.16-0.54,1.74-0.72c0.12-0.09,0.2-0.21,0.3-0.32c-1.11,0.08-2.3,0.53-2.91,1.05c-0.32,0.28,0.07,0.83,0.54,1.68 C13.66,8.98,13.8,9.07,13.91,8.86L13.91,8.86L13.91,8.86z"/>
      <path style="fill:#EDB92B;" d="M13.73,8.93c-0.03-0.07-0.04-0.14-0.05-0.21c-0.02-0.12-0.01-0.24,0.03-0.36c-0.13-0.19-0.28-0.39-0.39-0.59 c-0.08-0.14-0.14-0.3-0.09-0.46c0.05-0.17,0.2-0.29,0.34-0.4c0.16-0.13,0.38-0.24,0.6-0.33c0.5-0.2,0.89-0.3,1.18-0.31l-0.18,0.17 c-0.54,0.17-1.17,0.4-1.48,0.63c-0.4,0.3-0.38,0.37,0.19,1.18c0.02,0.02,0.06,0.09,0.04,0.12c-0.03,0.06-0.08,0.32,0.01,0.51 C13.88,8.97,13.8,8.92,13.73,8.93L13.73,8.93L13.73,8.93z"/>
      <path style="fill:#EDB92B;" d="M18.57,5.34c0-0.1,0-0.08-0.02,0.07c-0.02-0.03-0.04-0.05-0.06-0.04c-0.05,0-0.07,0.07-0.08,0.23 c0,0.04,0.01,0.08,0.01,0.12c-1.47-0.03-2.34,0.19-2.56,0.61c-0.18,0.35,0.13,0.93,0.6,1.59c0.06,0.08,0.06,0.07,0,0.14 c-0.08,0.1-0.17,0.26-0.1,0.4c-0.29,0.16-0.63,0.2-0.93,0.07c-0.05-0.13-0.16-0.19-0.24-0.25c-0.02-0.01-0.08-0.04-0.09-0.06 c-0.16-0.5-0.31-0.96-0.45-1.39C14.23,5.47,17.99,5.34,18.57,5.34L18.57,5.34L18.57,5.34z"/>
      <path style="fill:#EDB92B;" d="M18.83,10.94l-0.05,1.46c1.45,0.04,3.17,0.11,4.63,0.15l0.29-1.37C20.2,10.96,18.59,10.89,18.83,10.94 L18.83,10.94L18.83,10.94z"/>
      <path style="fill:#EDB92B;" d="M18.83,10.94L18.83,10.94c-0.78,0.04-2.15,0.12-4.13,0.24l0.29,1.37c1.32-0.04,2.85-0.09,4.21-0.14 c1.36,0.04,2.89,0.1,4.21,0.14l0.29-1.37c-1.98-0.13-3.36-0.2-4.13-0.24v-0.01c0.08-0.02-0.04-0.02-0.37-0.01 C18.87,10.92,18.75,10.92,18.83,10.94L18.83,10.94L18.83,10.94z"/>
      <path style="fill:#EDB92B;" d="M19.19,11.1c-0.05,0-0.11,0-0.16,0h-0.05h-0.03l-0.05,0l-0.03,0h-0.02h-0.03l-0.05,0h-0.05l-0.01,0l-0.04,0 c-0.04,0-0.08,0-0.12,0h-0.01h-0.01l-0.05,0h-0.02l-0.02,0l-0.05,0h0l-0.05,0l-0.02,0l-0.04,0h-0.01l-0.04,0l-0.05,0h0l-0.05,0 h-0.02l0,0c-0.06,0-0.13,0-0.19,0l-0.03,0l-0.07,0h-0.01l-0.06,0l-0.04,0l-0.03,0h-0.01l-0.06,0l0,0l-0.05,0h0l-0.05,0l-0.03,0 l-0.07,0h0c-0.09,0-0.19,0.01-0.28,0.01l-0.01,0c-0.14,0.01-0.27,0.01-0.41,0.02l-0.01,0l-0.02,0c-0.27,0.02-0.54,0.03-0.81,0.05 l-0.01,0l0,0c-0.39,0.03-0.78,0.06-1.17,0.1c-0.22,0.02-0.26-0.24,0-0.26c0.39-0.04,0.77-0.07,1.17-0.1l0,0 c0.54-0.04,1.09-0.07,1.64-0.09l0.05,0h0.01l0.01,0l0.05,0l0,0c0.23-0.01,0.45-0.01,0.68-0.02l0.04,0l0,0l0.06,0h0.01h0l0.05,0 l0.02,0l0.03,0l0.04,0l0.01,0h0.02c0.05,0,0.09,0,0.14,0l0.04,0h0.01l0.05,0c0.05,0,0.1,0,0.15,0h0l0.05,0c0.05,0,0.11,0,0.16,0 s0.11,0,0.16,0l0.05,0h0c0.05,0,0.1,0,0.16,0l0.05,0h0.01l0.04,0c0.05,0,0.09,0,0.14,0h0.02l0.01,0l0.04,0l0.03,0l0.02,0l0.05,0h0 H20l0.06,0l0,0l0.04,0c0.23,0,0.46,0.01,0.68,0.02l0,0l0.05,0l0.02,0h0.01l0.05,0c0.55,0.02,1.1,0.05,1.64,0.09l0,0 c0.39,0.03,0.78,0.06,1.17,0.1c0.26,0.02,0.22,0.28,0,0.26c-0.39-0.04-0.77-0.07-1.17-0.1l0,0l-0.01,0 c-0.27-0.02-0.54-0.04-0.81-0.05l-0.02,0l-0.01,0c-0.14-0.01-0.27-0.01-0.41-0.02l-0.01,0c-0.09,0-0.19-0.01-0.28-0.01l0,0l-0.07,0 l-0.03,0l-0.05,0h0l-0.05,0l0,0l-0.06,0H20.7l-0.03,0l-0.04,0l-0.06,0h-0.01l-0.07,0l-0.03,0c-0.06,0-0.13,0-0.19,0l0,0h-0.02 l-0.05,0h0l-0.05,0l-0.04,0H20.1l-0.04,0l-0.02,0l-0.05,0h0l-0.05,0l-0.02,0H19.9l-0.05,0h-0.01h-0.01c-0.04,0-0.08,0-0.12,0 l-0.04,0l-0.01,0h-0.05l-0.05,0h-0.03h-0.02l-0.03,0l-0.05,0h-0.03h-0.05C19.3,11.1,19.25,11.1,19.19,11.1L19.19,11.1L19.19,11.1z"/>
      <path style="fill:#FFFFFF;" d="M15.77,7.9c0.16,0,0.28,0.13,0.28,0.28c0,0.16-0.13,0.28-0.28,0.28s-0.28-0.13-0.28-0.28 C15.49,8.02,15.61,7.9,15.77,7.9L15.77,7.9z"/>
      <path style="fill:#FFFFFF;" d="M13.36,8.49c0.15,0,0.26,0.12,0.26,0.26c0,0.15-0.12,0.26-0.26,0.26c-0.14,0-0.26-0.12-0.26-0.26 C13.1,8.61,13.22,8.49,13.36,8.49L13.36,8.49z"/>
      <path style="fill:#FFFFFF;" d="M13.11,8.01c0.15,0,0.26,0.12,0.26,0.26c0,0.14-0.12,0.26-0.26,0.26s-0.26-0.12-0.26-0.26 C12.85,8.13,12.97,8.01,13.11,8.01L13.11,8.01z"/>
      <path style="fill:#FFFFFF;" d="M12.88,7.52c0.15,0,0.26,0.12,0.26,0.26c0,0.15-0.12,0.26-0.26,0.26c-0.14,0-0.26-0.12-0.26-0.26 C12.61,7.64,12.73,7.52,12.88,7.52L12.88,7.52z"/>
      <path style="fill:#EDB92B;" d="M19.19,8.84c0.19,0,0.34,0.15,0.34,0.34c0,0.19-0.15,0.34-0.34,0.34s-0.34-0.15-0.34-0.34 C18.85,9,19,8.84,19.19,8.84L19.19,8.84z"/>
      <path style="fill:#EDB92B;" d="M17.51,8.42c0.15-0.01,0.11,0.26,0.08,0.32c-0.04,0.08-0.08,0.08-0.12,0.01C17.43,8.7,17.36,8.43,17.51,8.42 L17.51,8.42L17.51,8.42z"/>
      <path style="fill:#FFFFFF;" d="M17.52,8.57c0.36-0.02,0.27,0.61,0.2,0.75c-0.09,0.19-0.18,0.19-0.29,0.02C17.34,9.21,17.17,8.59,17.52,8.57 L17.52,8.57L17.52,8.57z"/>
      <path style="fill:#EDB92B;" d="M14.65,8.81c0.14-0.05,0.17,0.23,0.16,0.29c-0.02,0.09-0.05,0.1-0.12,0.04C14.64,9.09,14.5,8.85,14.65,8.81 L14.65,8.81L14.65,8.81z"/>
      <path style="fill:#FFFFFF;" d="M14.69,8.95c0.34-0.11,0.41,0.53,0.37,0.68c-0.05,0.2-0.13,0.23-0.28,0.09C14.67,9.61,14.35,9.05,14.69,8.95 L14.69,8.95L14.69,8.95z"/>
      <path style="fill:#EDB92B;" d="M18.4,5.59c-0.76-0.07-1.55,0.01-2.32,0.32c-0.65,0.26-0.59,1.02,0.21,2.06c-0.07,0.13-0.11,0.3-0.12,0.49 c0.08,0,0.14,0,0.22,0c-0.06-0.13,0.01-0.28,0.08-0.39c0.05-0.07,0.06-0.06,0-0.14c-0.47-0.66-0.79-1.24-0.6-1.59 c0.22-0.42,1.09-0.65,2.56-0.61c0-0.04,0-0.08-0.01-0.12C18.41,5.6,18.4,5.59,18.4,5.59L18.4,5.59L18.4,5.59z"/>
      <path style="fill:#FFFFFF;" d="M14.69,5.8c0.15,0,0.27,0.12,0.27,0.27c0,0.15-0.12,0.27-0.27,0.27c-0.15,0-0.27-0.12-0.27-0.27 C14.41,5.93,14.54,5.8,14.69,5.8L14.69,5.8z"/>
      <path style="fill:#FFFFFF;" d="M15.22,5.63c0.15,0,0.27,0.12,0.27,0.27c0,0.15-0.12,0.27-0.27,0.27s-0.27-0.12-0.27-0.27 C14.95,5.75,15.07,5.63,15.22,5.63L15.22,5.63z"/>
      <path style="fill:#EDB92B;" d="M15.29,5.86c0.03,0.04,0.05,0.07,0.08,0.11c-0.43,0.24-0.61,0.49-0.57,0.74c0.01,0.04,0.14,0.5,0.43,1.39 c0.2,0.14,0.35,0.26,0.45,0.37c-0.01,0.01,0.03,0.05,0.02,0.06c0.03,0.14-0.12,0.11-0.23,0.07c-0.05-0.13-0.2-0.27-0.29-0.33 c-0.02-0.01-0.08-0.04-0.09-0.06c-0.16-0.5-0.31-0.96-0.45-1.39C14.52,6.39,14.81,6.08,15.29,5.86L15.29,5.86L15.29,5.86z"/>
      <path style="fill:#EDB92B;" d="M13.59,9.07l-0.02,0.09c-0.13,0.03-0.23,0.04-0.32,0.02C13.4,9.04,13.52,9.01,13.59,9.07L13.59,9.07 L13.59,9.07z"/>
      <path style="fill:#EDB92B;" d="M13.58,8.87c0.08,0.02,0.09,0.03,0.12,0.04c0.04,0.01,0.1,0,0.15-0.03c0.17-0.1,0.17,0.08,0.11,0.22 c-0.05,0.1-0.02,0.21,0.02,0.3c0.05,0.1,0.04,0.15,0,0.17c-0.03,0.02-0.05,0.03-0.08,0.05c-0.05,0.05-0.08,0.05-0.09-0.03 c-0.17-0.07-0.23-0.23-0.28-0.38C13.47,9.01,13.2,8.96,13.58,8.87L13.58,8.87L13.58,8.87z"/>
      <path style="fill:#EDB92B;" d="M13.65,8.88c0.15,0.05,0.16-0.03,0.26-0.03c-0.04,0.23-0.08,0.34-0.32,0.22c-0.13-0.07-0.3,0.03-0.33,0.1 c-0.01,0.03-0.09-0.03-0.11-0.09C13.04,8.84,13.45,8.81,13.65,8.88L13.65,8.88L13.65,8.88z"/>
      <path style="fill:#FFFFFF;" d="M18.16,5c0.15,0,0.27,0.12,0.27,0.27s-0.12,0.27-0.27,0.27s-0.27-0.12-0.27-0.27S18.01,5,18.16,5L18.16,5z"/>
      <path style="fill:#FFFFFF;" d="M17.6,5c0.15,0,0.27,0.12,0.27,0.27s-0.12,0.27-0.27,0.27s-0.27-0.12-0.27-0.27S17.45,5,17.6,5L17.6,5z"/>
      <path style="fill:#FFFFFF;" d="M17.05,5.05c0.15,0,0.27,0.12,0.27,0.27c0,0.15-0.12,0.27-0.27,0.27c-0.15,0-0.27-0.12-0.27-0.27 C16.78,5.17,16.9,5.05,17.05,5.05L17.05,5.05z"/>
      <path style="fill:#FFFFFF;" d="M16.54,5.15c0.15,0,0.27,0.12,0.27,0.27s-0.12,0.27-0.27,0.27s-0.27-0.12-0.27-0.27S16.39,5.15,16.54,5.15 L16.54,5.15z"/>
      <path style="fill:#FFFFFF;" d="M13.17,6.54c0.15,0,0.27,0.12,0.27,0.27c0,0.15-0.12,0.27-0.27,0.27c-0.15,0-0.27-0.12-0.27-0.27 C12.89,6.67,13.01,6.54,13.17,6.54L13.17,6.54z"/>
      <path style="fill:#FFFFFF;" d="M13.63,6.25c0.15,0,0.27,0.12,0.27,0.27s-0.12,0.27-0.27,0.27c-0.15,0-0.27-0.12-0.27-0.27 S13.48,6.25,13.63,6.25L13.63,6.25z"/>
      <path style="fill:#FFFFFF;" d="M14.16,6c0.15,0,0.27,0.12,0.27,0.27c0,0.15-0.12,0.27-0.27,0.27c-0.15,0-0.27-0.12-0.27-0.27 C13.89,6.12,14.01,6,14.16,6L14.16,6z"/>
      <path style="fill:#FFFFFF;" d="M12.8,6.99c0.15,0,0.27,0.12,0.27,0.27c0,0.15-0.12,0.27-0.27,0.27s-0.27-0.12-0.27-0.27 C12.53,7.11,12.65,6.99,12.8,6.99L12.8,6.99z"/>
      <polygon style="fill:#EDB92B;" points="18.18,11.68 19.19,11.18 20.2,11.68 19.19,12.19 18.18,11.68"/>
      <path style="fill:#184275;" d="M19.19,11.38c0.25,0,0.45,0.14,0.45,0.3s-0.2,0.3-0.45,0.3c-0.25,0-0.45-0.14-0.45-0.3 S18.94,11.38,19.19,11.38L19.19,11.38z"/>
      <polygon style="fill:#EDB92B;" points="15.94,11.81 16.92,11.25 17.96,11.69 16.98,12.25 15.94,11.81"/>
      <path style="fill:#C6363C;" d="M16.93,11.44c0.25-0.02,0.46,0.11,0.47,0.27c0.01,0.17-0.18,0.31-0.43,0.33c-0.25,0.02-0.46-0.11-0.47-0.27 C16.48,11.6,16.68,11.46,16.93,11.44L16.93,11.44z"/>
      <path style="fill:#EDB92B;" d="M14.77,11.41l1.06,0.4l-0.87,0.58C14.72,12.31,14.55,11.55,14.77,11.41L14.77,11.41L14.77,11.41z"/>
      <path style="fill:#184275;" d="M14.79,11.6c0.25-0.03,0.47,0.09,0.48,0.26c0.02,0.17-0.17,0.32-0.42,0.35c-0.16,0.02-0.26-0.13-0.28-0.28 C14.55,11.78,14.62,11.62,14.79,11.6L14.79,11.6L14.79,11.6z"/>
      <path style="fill:#FFFFFF;" d="M18.1,11.87c0.08,0,0.14,0.06,0.14,0.14c0,0.08-0.06,0.14-0.14,0.14c-0.08,0-0.14-0.06-0.14-0.14 C17.96,11.93,18.02,11.87,18.1,11.87L18.1,11.87z"/>
      <path style="fill:#FFFFFF;" d="M15.93,11.99c0.08,0,0.14,0.06,0.14,0.14c0,0.08-0.06,0.14-0.14,0.14c-0.08,0-0.14-0.06-0.14-0.14 C15.79,12.05,15.86,11.99,15.93,11.99L15.93,11.99z"/>
      <path style="fill:#FFFFFF;" d="M15.86,11.34c0.08,0,0.14,0.06,0.14,0.14c0,0.08-0.06,0.14-0.14,0.14s-0.14-0.06-0.14-0.14 C15.72,11.4,15.78,11.34,15.86,11.34L15.86,11.34z"/>
      <path style="fill:#FFFFFF;" d="M18.09,11.24c0.08,0,0.14,0.06,0.14,0.14c0,0.08-0.06,0.14-0.14,0.14c-0.08,0-0.14-0.06-0.14-0.14 C17.95,11.31,18.01,11.24,18.09,11.24L18.09,11.24z"/>
      <path style="fill:#EDB92B;" d="M14.26,9.98c0.11-0.03,0.27,0.2,0.31,0.2c0.05-0.14-0.05-0.46-0.25-0.72c-0.13-0.04-0.14-0.13-0.17-0.32 c-0.01-0.06-0.12-0.02-0.12,0.08c0,0.1-0.01,0.16,0.01,0.25c0.01,0.04,0,0.07-0.04,0.1C14.22,9.66,14.27,9.75,14.26,9.98 L14.26,9.98L14.26,9.98z"/>
      <path style="fill:#EDB92B;" d="M14.16,9.14c-0.02,0.04-0.02,0.08-0.03,0.15c0,0.05,0.02,0.1,0.05,0.14c0.03,0.04,0.08,0.08,0.13,0.11 c0.03,0.02,0.07,0.07,0.1,0.13s0.05,0.13,0.05,0.17c0,0.16,0.03,0.3,0.11,0.32c0.05,0.02,0.07,0.02,0.1,0.01 c-0.01-0.03-0.01-0.07-0.03-0.11c-0.03-0.05-0.06-0.11-0.06-0.16c0-0.04-0.02-0.07-0.01-0.14c0.01-0.05,0.04-0.07,0.04-0.12 c-0.01-0.09-0.08-0.27-0.19-0.27c-0.1,0-0.15-0.01-0.21-0.15C14.2,9.19,14.18,9.17,14.16,9.14L14.16,9.14L14.16,9.14z"/>
      <path style="fill:#EDB92B;" d="M13.77,9.52c0.03-0.02,0.06-0.04,0.1-0.05c0.05-0.02,0.11-0.02,0.17-0.01c0.25,0.08,0.36,0.51,0.09,0.62 c-0.05,0.01-0.1-0.04-0.15-0.15c-0.06-0.14-0.12-0.24-0.18-0.3C13.75,9.59,13.75,9.55,13.77,9.52L13.77,9.52L13.77,9.52z"/>
      <path style="fill:#EDB92B;" d="M13.9,9.55c0.24-0.09,0.42,0.36,0.19,0.45c-0.12,0.05-0.13-0.1-0.15-0.19C13.9,9.7,13.67,9.64,13.9,9.55 L13.9,9.55L13.9,9.55z"/>
      <path style="fill:#184275;" d="M13.92,9.62c0.12-0.05,0.28,0.23,0.13,0.29c-0.1,0.04-0.18-0.01-0.21-0.09S13.84,9.65,13.92,9.62L13.92,9.62z"/>
      <polygon style="fill:#EDB92B;" points="22.44,11.81 21.47,11.25 20.43,11.69 21.41,12.25 22.44,11.81"/>
      <path style="fill:#C6363C;" d="M21.46,11.44c-0.25-0.02-0.46,0.11-0.47,0.27c-0.01,0.17,0.18,0.31,0.44,0.33c0.25,0.02,0.46-0.11,0.47-0.27 C21.9,11.6,21.71,11.46,21.46,11.44L21.46,11.44L21.46,11.44z"/>
      <path style="fill:#EDB92B;" d="M23.62,11.41l-1.05,0.4l0.87,0.58C23.66,12.31,23.84,11.55,23.62,11.41L23.62,11.41L23.62,11.41z"/>
      <path style="fill:#184275;" d="M23.6,11.6c-0.25-0.03-0.47,0.09-0.48,0.26c-0.02,0.17,0.17,0.32,0.42,0.35c0.16,0.02,0.26-0.13,0.28-0.28 C23.83,11.78,23.77,11.62,23.6,11.6L23.6,11.6z"/>
      <path style="fill:#FFFFFF;" d="M20.29,11.87c-0.08,0-0.14,0.06-0.14,0.14c0,0.08,0.06,0.14,0.14,0.14s0.14-0.06,0.14-0.14 C20.43,11.93,20.37,11.87,20.29,11.87L20.29,11.87z"/>
      <path style="fill:#FFFFFF;" d="M22.45,11.99c-0.08,0-0.14,0.06-0.14,0.14c0,0.08,0.06,0.14,0.14,0.14s0.14-0.06,0.14-0.14 C22.59,12.05,22.53,11.99,22.45,11.99L22.45,11.99z"/>
      <path style="fill:#FFFFFF;" d="M22.53,11.34c-0.08,0-0.14,0.06-0.14,0.14c0,0.08,0.06,0.14,0.14,0.14c0.08,0,0.14-0.06,0.14-0.14 C22.67,11.4,22.6,11.34,22.53,11.34L22.53,11.34z"/>
      <path style="fill:#FFFFFF;" d="M20.29,11.24c-0.08,0-0.14,0.06-0.14,0.14c0,0.08,0.06,0.14,0.14,0.14s0.14-0.06,0.14-0.14 C20.43,11.31,20.37,11.24,20.29,11.24L20.29,11.24z"/>
      <path style="fill:#FFFFFF;" d="M15.55,7.43c0.16,0,0.28,0.13,0.28,0.28c0,0.16-0.13,0.28-0.28,0.28c-0.16,0-0.28-0.13-0.28-0.28 C15.27,7.56,15.4,7.43,15.55,7.43L15.55,7.43z"/>
      <path style="fill:#FFFFFF;" d="M15.35,6.96c0.16,0,0.28,0.13,0.28,0.28c0,0.16-0.13,0.28-0.28,0.28c-0.16,0-0.28-0.13-0.28-0.28 C15.06,7.09,15.19,6.96,15.35,6.96L15.35,6.96z"/>
      <path style="fill:#FFFFFF;" d="M16.02,5.31c0.15,0,0.27,0.12,0.27,0.27c0,0.15-0.12,0.27-0.27,0.27c-0.15,0-0.27-0.12-0.27-0.27 C15.75,5.43,15.87,5.31,16.02,5.31L16.02,5.31z"/>
      <path style="fill:#FFFFFF;" d="M15.56,5.52c0.16,0,0.28,0.13,0.28,0.28c0,0.16-0.13,0.28-0.28,0.28c-0.16,0-0.28-0.13-0.28-0.28 C15.28,5.65,15.41,5.52,15.56,5.52L15.56,5.52z"/>
      <path style="fill:#FFFFFF;" d="M15.23,5.92c0.16,0,0.28,0.13,0.28,0.28c0,0.16-0.13,0.28-0.28,0.28s-0.28-0.13-0.28-0.28 C14.94,6.04,15.07,5.92,15.23,5.92L15.23,5.92z"/>
      <path style="fill:#FFFFFF;" d="M15.17,6.42c0.16,0,0.28,0.13,0.28,0.28s-0.13,0.28-0.28,0.28c-0.16,0-0.28-0.13-0.28-0.28 S15.02,6.42,15.17,6.42L15.17,6.42z"/>
      <path style="fill:#EDB92B;" d="M19.33,3.26c0.07,0,0.13-0.06,0.13-0.14s-0.06-0.14-0.13-0.14c0-0.08-0.06-0.14-0.14-0.14 c-0.08,0-0.14,0.06-0.14,0.14c-0.07,0-0.13,0.06-0.13,0.14s0.06,0.14,0.13,0.14v0.28h-0.24c0-0.08-0.06-0.14-0.14-0.14 c-0.08,0-0.14,0.06-0.14,0.13c-0.08,0-0.14,0.06-0.14,0.14c0,0.08,0.06,0.14,0.14,0.14c0,0.07,0.06,0.14,0.14,0.14 c0.07,0,0.13-0.06,0.14-0.13h0.24v0.94h0.28V3.82h0.24c0,0.07,0.06,0.13,0.14,0.13c0.07,0,0.14-0.06,0.14-0.14 c0.08,0,0.14-0.06,0.14-0.14c0-0.08-0.06-0.14-0.14-0.14c0-0.08-0.06-0.13-0.14-0.13c-0.08,0-0.14,0.06-0.14,0.14h-0.24V3.26 L19.33,3.26z"/>
      <path style="fill:#184275;" d="M19.19,4.15c0.42,0,0.76,0.34,0.76,0.76c0,0.42-0.34,0.76-0.76,0.76c-0.42,0-0.76-0.34-0.76-0.76 C18.43,4.49,18.77,4.15,19.19,4.15L19.19,4.15z"/>
      <path style="fill:#EDB92B;" d="M19.19,4.15c0.05,0,0.09,0,0.14,0.01v0.6h-0.28v-0.6C19.1,4.15,19.15,4.15,19.19,4.15L19.19,4.15z"/>
      <path style="fill:#EDB92B;" d="M19.94,4.76c0.01,0.05,0.02,0.1,0.02,0.15c0,0.04,0,0.07-0.01,0.11C19.7,5.01,19.44,5,19.19,5 c-0.25,0-0.5,0.01-0.75,0.01c0-0.04-0.01-0.07-0.01-0.11c0-0.05,0.01-0.1,0.02-0.15c0.25-0.01,0.5-0.01,0.75-0.01 C19.44,4.74,19.69,4.75,19.94,4.76L19.94,4.76L19.94,4.76z"/>
      <path style="fill:#EDB92B;" d="M18.6,5.39c-0.16-0.1-0.19,0.06-0.19,0.21c0.02,0.58,0.13,1.14-0.03,1.85c-0.06,0.29-0.16,0.45-0.07,0.5 c0.25,0.14,0.37,0.27,0.33,0.34c0.07,0.14,0.26,0.11,0.54,0.07c0.28,0.04,0.47,0.07,0.54-0.07c-0.04-0.07,0.08-0.2,0.33-0.34 c0.1-0.06,0-0.22-0.07-0.5c-0.16-0.71-0.05-1.27-0.03-1.85c0-0.15-0.02-0.31-0.19-0.21C19.47,5.58,18.92,5.58,18.6,5.39L18.6,5.39 L18.6,5.39z"/>
      <path style="fill:#FFFFFF;" d="M19.19,7.58c0.17,0,0.3,0.14,0.3,0.3c0,0.17-0.14,0.3-0.3,0.3s-0.3-0.14-0.3-0.3 C18.89,7.72,19.03,7.58,19.19,7.58L19.19,7.58z"/>
      <path style="fill:#FFFFFF;" d="M19.19,7.06c0.17,0,0.3,0.14,0.3,0.3c0,0.17-0.14,0.3-0.3,0.3s-0.3-0.14-0.3-0.3 C18.89,7.19,19.03,7.06,19.19,7.06L19.19,7.06z"/>
      <path style="fill:#FFFFFF;" d="M19.19,6.55c0.17,0,0.3,0.14,0.3,0.3s-0.14,0.3-0.3,0.3s-0.3-0.14-0.3-0.3S19.03,6.55,19.19,6.55L19.19,6.55z"/>
      <path style="fill:#FFFFFF;" d="M19.19,5.12c0.17,0,0.3,0.14,0.3,0.3c0,0.17-0.14,0.3-0.3,0.3s-0.3-0.14-0.3-0.3 C18.89,5.25,19.03,5.12,19.19,5.12L19.19,5.12z"/>
      <path style="fill:#FFFFFF;" d="M19.19,5.56c0.17,0,0.3,0.14,0.3,0.3c0,0.17-0.14,0.3-0.3,0.3s-0.3-0.14-0.3-0.3 C18.89,5.7,19.03,5.56,19.19,5.56L19.19,5.56z"/>
      <path style="fill:#FFFFFF;" d="M19.19,6.05c0.17,0,0.3,0.14,0.3,0.3s-0.14,0.3-0.3,0.3s-0.3-0.14-0.3-0.3S19.03,6.05,19.19,6.05L19.19,6.05z"/>
      <path style="fill:#EDB92B;" d="M18.85,8.24c-0.12-0.22-0.25-0.36-0.38-0.43c0.19-0.58,0.23-1.33,0.12-2.25c-0.01-0.14-0.05-0.2-0.1-0.2 c-0.05,0-0.07,0.07-0.08,0.23c0.03,0.51,0.08,0.95,0.05,1.33c-0.02,0.34-0.1,0.62-0.19,0.93c-0.01,0.04,0.02,0.08,0.17,0.16 c0.11,0.06,0.18,0.14,0.21,0.22c0.03-0.01,0.05-0.01,0.07,0C18.83,8.27,18.88,8.27,18.85,8.24L18.85,8.24L18.85,8.24z"/>
      <path style="fill:#EDB92B;" d="M19.54,8.24c0.12-0.22,0.25-0.36,0.38-0.43c-0.19-0.58-0.23-1.33-0.12-2.25c0.01-0.14,0.05-0.2,0.1-0.2 c0.05,0,0.07,0.07,0.08,0.23c-0.03,0.51-0.07,0.95-0.05,1.33c0.02,0.34,0.1,0.62,0.19,0.93c0.01,0.04-0.02,0.08-0.17,0.16 c-0.11,0.06-0.18,0.14-0.21,0.22c-0.03-0.01-0.05-0.01-0.07,0C19.55,8.27,19.51,8.27,19.54,8.24L19.54,8.24L19.54,8.24z"/>
      <path style="fill:#EDB92B;" d="M19.41,8.13c0.04,0.07,0.03,0.08,0.06,0.11c0.04,0.03,0.1,0.03,0.15,0.02c0.23-0.04,0.2,0.1,0.1,0.26 c-0.05,0.08-0.17,0.16-0.23,0.23c-0.06,0.07-0.07,0.12-0.09,0.14c-0.09,0-0.17,0-0.2,0c-0.04,0-0.11,0-0.2,0 c-0.02-0.02-0.03-0.07-0.09-0.14c-0.06-0.07-0.18-0.15-0.23-0.23c-0.1-0.16-0.14-0.3,0.1-0.26c0.06,0.01,0.12,0.01,0.15-0.02 c0.03-0.02,0.02-0.04,0.06-0.11c0.03-0.04,0.06-0.08,0.1-0.1c0.04-0.02,0.08-0.01,0.12-0.01c0.04,0,0.08-0.01,0.12,0.01 C19.35,8.05,19.38,8.09,19.41,8.13L19.41,8.13L19.41,8.13z"/>
      <path style="fill:#20221D;" d="M19.16,8.89l-0.04-0.01c-0.02-0.17-0.09-0.3-0.19-0.42C19.04,8.54,19.13,8.71,19.16,8.89L19.16,8.89z"/>
      <path style="fill:#20221D;" d="M19.23,8.89l0.04-0.01c0.02-0.17,0.09-0.3,0.19-0.42C19.34,8.54,19.25,8.71,19.23,8.89L19.23,8.89z"/>
      <path style="fill:#EDB92B;" d="M19.73,8.25c-0.02,0.05-0.04,0.11-0.09,0.15c-0.07,0.07-0.18,0.02-0.29-0.07c-0.03-0.03-0.1-0.04-0.16-0.04 c-0.06,0-0.12,0.01-0.16,0.04c-0.11,0.09-0.22,0.14-0.29,0.07c-0.04-0.05-0.07-0.1-0.09-0.15c0.03,0,0.06,0,0.11,0 c0.06,0.01,0.12,0.01,0.15-0.02c0.03-0.02,0.02-0.04,0.06-0.1c0.03-0.04,0.06-0.08,0.1-0.1c0.04-0.02,0.08-0.01,0.12-0.01 c0.04,0,0.08-0.01,0.12,0.01c0.04,0.02,0.07,0.06,0.1,0.1c0.04,0.07,0.03,0.08,0.06,0.1c0.04,0.03,0.1,0.03,0.15,0.02 C19.67,8.25,19.7,8.25,19.73,8.25L19.73,8.25L19.73,8.25z"/>
      <path style="fill:#EDB92B;" d="M18.14,8.97c0.07-0.04,0.08-0.03,0.11-0.06c0.03-0.04,0.03-0.1,0.02-0.15c-0.04-0.23,0.1-0.2,0.26-0.1 c0.08,0.05,0.16,0.17,0.23,0.23c0.07,0.06,0.12,0.07,0.14,0.09c0,0.09,0,0.17,0,0.2l0,0c0,0.03,0,0.11,0,0.2 c-0.02,0.02-0.07,0.03-0.14,0.09c-0.07,0.06-0.15,0.18-0.23,0.23c-0.16,0.1-0.3,0.14-0.26-0.1c0.01-0.06,0.01-0.12-0.02-0.15 c-0.02-0.03-0.04-0.02-0.11-0.06c-0.05-0.03-0.08-0.06-0.1-0.1c-0.02-0.04-0.01-0.08-0.01-0.12c0-0.04-0.01-0.08,0.01-0.12 C18.06,9.03,18.09,9,18.14,8.97L18.14,8.97z"/>
      <path style="fill:#20221D;" d="M18.9,9.22l-0.01,0.04c-0.17,0.02-0.3,0.09-0.42,0.19C18.55,9.33,18.72,9.25,18.9,9.22L18.9,9.22z"/>
      <path style="fill:#20221D;" d="M18.9,9.15l-0.01-0.04c-0.17-0.02-0.3-0.09-0.42-0.19C18.55,9.04,18.72,9.12,18.9,9.15L18.9,9.15z"/>
      <path style="fill:#EDB92B;" d="M18.26,8.65c0.05,0.02,0.11,0.04,0.15,0.09c0.07,0.07,0.02,0.18-0.07,0.29c-0.03,0.03-0.04,0.1-0.04,0.16 c0,0.06,0.01,0.12,0.04,0.15c0.09,0.11,0.14,0.22,0.07,0.29c-0.05,0.04-0.1,0.07-0.15,0.09c0-0.03,0-0.06,0-0.11 c0.01-0.06,0.01-0.12-0.02-0.15c-0.02-0.03-0.04-0.02-0.11-0.06c-0.05-0.03-0.08-0.06-0.1-0.1c-0.02-0.04-0.01-0.08-0.01-0.12 c0-0.04-0.01-0.08,0.01-0.12c0.02-0.04,0.06-0.07,0.1-0.1c0.07-0.04,0.08-0.03,0.11-0.06c0.03-0.04,0.03-0.1,0.02-0.15 C18.26,8.71,18.26,8.68,18.26,8.65L18.26,8.65L18.26,8.65z"/>
      <path style="fill:#EDB92B;" d="M20.25,9.4c-0.07,0.04-0.08,0.03-0.11,0.06c-0.03,0.04-0.03,0.1-0.02,0.15c0.04,0.23-0.1,0.2-0.26,0.1 c-0.08-0.05-0.16-0.17-0.23-0.23c-0.07-0.06-0.12-0.07-0.14-0.09c0-0.09,0-0.17,0-0.2v0c0-0.03,0-0.11,0-0.2 c0.02-0.02,0.07-0.03,0.14-0.09c0.07-0.06,0.15-0.18,0.23-0.23c0.16-0.1,0.3-0.14,0.26,0.1c-0.01,0.06-0.01,0.12,0.02,0.15 c0.02,0.03,0.04,0.02,0.11,0.06c0.05,0.03,0.08,0.06,0.1,0.1s0.01,0.08,0.01,0.12c0,0.04,0.01,0.08-0.01,0.12 C20.33,9.34,20.29,9.37,20.25,9.4L20.25,9.4z"/>
      <path style="fill:#20221D;" d="M19.49,9.15l0.01-0.04c0.17-0.02,0.3-0.09,0.42-0.19C19.84,9.04,19.67,9.12,19.49,9.15L19.49,9.15z"/>
      <path style="fill:#20221D;" d="M19.49,9.22l0.01,0.04c0.17,0.02,0.3,0.09,0.42,0.19C19.84,9.33,19.67,9.25,19.49,9.22L19.49,9.22z"/>
      <path style="fill:#EDB92B;" d="M20.12,9.72c-0.05-0.02-0.11-0.04-0.15-0.09c-0.07-0.07-0.02-0.18,0.07-0.29c0.03-0.03,0.04-0.1,0.04-0.16 c0-0.06-0.01-0.12-0.04-0.16c-0.09-0.11-0.14-0.22-0.07-0.29c0.05-0.04,0.1-0.07,0.15-0.09c0,0.03,0,0.06,0-0.1 c-0.01,0.06-0.01,0.12,0.02,0.15c0.02,0.03,0.04,0.02,0.11,0.06c0.04,0.03,0.08,0.06,0.1,0.1s0.01,0.08,0.01,0.12 c0,0.04,0.01,0.08-0.01,0.12c-0.02,0.04-0.06,0.07-0.1,0.1c-0.07,0.04-0.08,0.03-0.11,0.06c-0.03,0.04-0.03,0.1-0.02,0.15 C20.13,9.66,20.13,9.69,20.12,9.72L20.12,9.72z"/>
      <path style="fill:#EDB92B;" d="M19.19,8.84c0.19,0,0.34,0.15,0.34,0.34c0,0.19-0.15,0.34-0.34,0.34s-0.34-0.15-0.34-0.34 C18.85,9,19,8.84,19.19,8.84L19.19,8.84z"/>
      <path style="fill:#EDB92B;" d="M19.19,8.93c0.14,0,0.25,0.11,0.25,0.25c0,0.14-0.11,0.25-0.25,0.25c-0.14,0-0.25-0.11-0.25-0.25 C18.94,9.05,19.05,8.93,19.19,8.93L19.19,8.93z"/>
      <path style="fill:#184275;" d="M19.19,9.03c0.09,0,0.16,0.07,0.16,0.16s-0.07,0.16-0.16,0.16c-0.09,0-0.16-0.07-0.16-0.16 S19.1,9.03,19.19,9.03L19.19,9.03z"/>
      <path style="fill:#20221D;" d="M13.82,9.49l0.03-0.01c-0.07-0.09-0.08-0.19-0.06-0.28C13.73,9.27,13.75,9.38,13.82,9.49L13.82,9.49z"/>
      <path style="fill:#EDB92B;" d="M16.02,8.33c0.06,0.07,0.05,0.09,0.08,0.11c0.04,0.03,0.1,0.02,0.15,0c0.22-0.08,0.22,0.09,0.15,0.28 c-0.03,0.09-0.12,0.2-0.16,0.28c-0.04,0.08-0.03,0.14-0.05,0.16c-0.08,0.01-0.15,0.02-0.18,0.03h0c-0.03,0-0.1,0.01-0.17,0.02 c-0.02-0.01-0.04-0.07-0.12-0.13c-0.07-0.06-0.2-0.13-0.26-0.2c-0.14-0.15-0.21-0.3,0.01-0.29c0.05,0,0.11-0.01,0.13-0.05 c0.02-0.03,0-0.04,0.02-0.13c0.01-0.06,0.03-0.1,0.06-0.13c0.03-0.03,0.07-0.03,0.1-0.03c0.04-0.01,0.07-0.03,0.11-0.01 C15.94,8.24,15.99,8.28,16.02,8.33L16.02,8.33L16.02,8.33z"/>
      <path style="fill:#20221D;" d="M15.99,9.19c-0.01,0-0.02,0-0.04,0c-0.06-0.17-0.16-0.31-0.28-0.42C15.8,8.83,15.93,9,15.99,9.19L15.99,9.19z"/>
      <path style="fill:#20221D;" d="M16.06,9.18c0.01,0,0.02-0.01,0.03-0.01c-0.02-0.18,0-0.33,0.07-0.48C16.07,8.79,16.03,8.99,16.06,9.18 L16.06,9.18z"/>
      <path style="fill:#EDB92B;" d="M16.36,8.42c-0.01,0.06-0.02,0.13-0.05,0.19c-0.05,0.09-0.16,0.06-0.29-0.03c-0.04-0.03-0.1-0.03-0.15-0.02 c-0.06,0.01-0.11,0.04-0.13,0.07c-0.07,0.12-0.16,0.18-0.24,0.12c-0.05-0.04-0.09-0.1-0.12-0.15c0.02-0.01,0.05-0.01,0.09-0.01 c0.05,0,0.11-0.01,0.13-0.05c0.02-0.03,0-0.04,0.02-0.13c0.01-0.06,0.03-0.1,0.06-0.13c0.03-0.03,0.07-0.03,0.1-0.03 c0.04-0.01,0.07-0.03,0.11-0.01c0.04,0.02,0.08,0.05,0.12,0.1c0.06,0.07,0.05,0.09,0.08,0.11c0.04,0.03,0.1,0.02,0.15,0 C16.3,8.42,16.33,8.42,16.36,8.42L16.36,8.42L16.36,8.42z"/>
      <path style="fill:#EDB92B;" d="M15.18,9.26c0.03-0.04,0.05-0.03,0.06-0.06c0.01-0.03-0.01-0.09-0.04-0.14c-0.1-0.2,0.01-0.18,0.16-0.1 c0.04,0.02,0.08,0.06,0.13,0.09c0.04,0.04,0.09,0.08,0.12,0.1c0.07,0.05,0.12,0.05,0.14,0.08c0.03,0.08,0.06,0.15,0.07,0.18l0,0 c0.01,0.03,0.04,0.1,0.07,0.18c0,0.02-0.05,0.03-0.08,0.09c-0.03,0.06-0.06,0.16-0.09,0.21c-0.06,0.07-0.11,0.12-0.15,0.11 C15.52,10,15.5,9.94,15.49,9.82c0-0.05-0.03-0.1-0.07-0.13c-0.03-0.02-0.03-0.01-0.1-0.05c-0.04-0.02-0.08-0.05-0.1-0.08 c-0.03-0.03-0.03-0.06-0.04-0.1c-0.01-0.03-0.03-0.07-0.03-0.1C15.15,9.32,15.16,9.29,15.18,9.26L15.18,9.26L15.18,9.26z"/>
      <path style="fill:#20221D;" d="M15.84,9.48c0,0.01,0.01,0.03,0.01,0.04c-0.06,0.02-0.12,0.04-0.16,0.08c-0.04,0.04-0.08,0.08-0.11,0.14 c0.01-0.06,0.04-0.12,0.09-0.16C15.71,9.53,15.77,9.5,15.84,9.48L15.84,9.48z"/>
      <path style="fill:#20221D;" d="M15.81,9.41c-0.01-0.01-0.01-0.03-0.02-0.04c-0.07-0.01-0.14-0.02-0.21-0.05c-0.07-0.03-0.13-0.07-0.2-0.12 c0.05,0.06,0.12,0.11,0.19,0.14C15.65,9.37,15.73,9.4,15.81,9.41L15.81,9.41z"/>
      <path style="fill:#EDB92B;" d="M15.17,8.94c0.04,0.02,0.07,0.04,0.12,0.08c0.04,0.03,0.06,0.08,0.07,0.13c0.01,0.05,0,0.11-0.01,0.17 c-0.01,0.04,0,0.1,0.02,0.16c0.02,0.06,0.05,0.12,0.09,0.15c0.11,0.11,0.18,0.22,0.15,0.29c-0.02,0.05-0.03,0.06-0.07,0.08 c-0.01-0.03-0.04-0.05-0.05-0.09c-0.01-0.06-0.04-0.12-0.07-0.15c-0.03-0.03-0.03-0.06-0.1-0.1c-0.04-0.03-0.08-0.01-0.11-0.05 c-0.06-0.07-0.13-0.24-0.06-0.31c0.07-0.08,0.1-0.12,0.04-0.25C15.17,9,15.17,8.96,15.17,8.94L15.17,8.94L15.17,8.94z"/>
      <path style="fill:#EDB92B;" d="M17.06,9.48C17,9.53,16.99,9.52,16.97,9.55c-0.02,0.04-0.01,0.09,0.01,0.15c0.07,0.21-0.06,0.19-0.21,0.11 c-0.08-0.04-0.17-0.14-0.24-0.19c-0.07-0.05-0.12-0.05-0.14-0.07c-0.02-0.08-0.04-0.16-0.04-0.19h0c-0.01-0.03-0.02-0.11-0.04-0.19 c0.01-0.03,0.06-0.04,0.11-0.11c0.05-0.07,0.1-0.2,0.16-0.27c0.13-0.13,0.26-0.19,0.26,0.07c0,0.06,0.01,0.12,0.05,0.16 c0.03,0.03,0.04,0.01,0.11,0.05c0.05,0.02,0.08,0.05,0.11,0.09c0.03,0.03,0.02,0.08,0.03,0.12c0.01,0.04,0.02,0.08,0.01,0.12 C17.12,9.42,17.1,9.45,17.06,9.48L17.06,9.48L17.06,9.48z"/>
      <path style="fill:#20221D;" d="M16.34,9.32c0-0.01,0-0.03,0-0.04c0.14-0.04,0.25-0.12,0.34-0.24C16.63,9.17,16.49,9.28,16.34,9.32 L16.34,9.32z"/>
      <path style="fill:#20221D;" d="M16.36,9.39c0,0.01,0.01,0.02,0.01,0.04c0.15,0,0.28,0.05,0.41,0.14C16.69,9.46,16.52,9.4,16.36,9.39 L16.36,9.39z"/>
      <path style="fill:#EDB92B;" d="M17,9.8c-0.05-0.01-0.1-0.03-0.15-0.07c-0.07-0.06-0.05-0.17,0.01-0.28c0.02-0.04,0.02-0.1,0.01-0.16 c-0.01-0.06-0.03-0.12-0.07-0.15c-0.1-0.1-0.17-0.21-0.11-0.29c0.04-0.05,0.08-0.08,0.13-0.11c0.01,0.03,0.02,0.06,0.02,0.11 c0,0.06,0.01,0.12,0.05,0.16c0.03,0.03,0.04,0.01,0.11,0.05c0.05,0.02,0.08,0.05,0.11,0.09c0.03,0.03,0.02,0.08,0.03,0.12 c0.01,0.04,0.02,0.08,0.01,0.12c-0.02,0.04-0.04,0.07-0.08,0.11C17,9.53,16.99,9.52,16.97,9.55c-0.02,0.04-0.01,0.09,0.01,0.15 C16.99,9.74,17,9.77,17,9.8L17,9.8L17,9.8z"/>
      <path style="fill:#EDB92B;" d="M16.02,9.05c0.18-0.01,0.35,0.15,0.38,0.34c0.02,0.19-0.1,0.34-0.27,0.34c-0.17,0-0.33-0.14-0.36-0.32 C15.73,9.23,15.84,9.06,16.02,9.05L16.02,9.05z"/>
      <path style="fill:#EDB92B;" d="M16.03,9.15c0.13-0.01,0.26,0.11,0.27,0.25s-0.07,0.25-0.2,0.25c-0.13,0-0.24-0.1-0.27-0.24 C15.82,9.27,15.9,9.15,16.03,9.15L16.03,9.15L16.03,9.15z"/>
      <path style="fill:#184275;" d="M16.05,9.24c0.08,0,0.16,0.07,0.17,0.15c0.01,0.09-0.04,0.16-0.12,0.16c-0.08,0-0.16-0.06-0.17-0.15 C15.91,9.32,15.96,9.25,16.05,9.24L16.05,9.24L16.05,9.24z"/>
      <path style="fill:#FFFFFF;" d="M22.62,7.9c-0.16,0-0.28,0.13-0.28,0.28c0,0.16,0.13,0.28,0.28,0.28c0.16,0,0.28-0.13,0.28-0.28 C22.9,8.02,22.77,7.9,22.62,7.9L22.62,7.9z"/>
      <path style="fill:#FFFFFF;" d="M25.02,8.49c-0.15,0-0.26,0.12-0.26,0.26c0,0.15,0.12,0.26,0.26,0.26s0.26-0.12,0.26-0.26 C25.28,8.61,25.17,8.49,25.02,8.49L25.02,8.49z"/>
      <path style="fill:#FFFFFF;" d="M25.27,8.01c-0.15,0-0.26,0.12-0.26,0.26c0,0.14,0.12,0.26,0.26,0.26s0.26-0.12,0.26-0.26 C25.53,8.13,25.42,8.01,25.27,8.01L25.27,8.01z"/>
      <path style="fill:#FFFFFF;" d="M25.51,7.52c-0.14,0-0.26,0.12-0.26,0.26c0,0.15,0.12,0.26,0.26,0.26c0.15,0,0.26-0.12,0.26-0.26 C25.77,7.64,25.65,7.52,25.51,7.52L25.51,7.52z"/>
      <path style="fill:#EDB92B;" d="M20.87,8.42c-0.15-0.01-0.11,0.26-0.08,0.32c0.04,0.08,0.08,0.08,0.12,0.01C20.95,8.7,21.02,8.43,20.87,8.42 L20.87,8.42L20.87,8.42z"/>
      <path style="fill:#FFFFFF;" d="M20.86,8.57c-0.36-0.02-0.27,0.61-0.2,0.75c0.09,0.18,0.18,0.19,0.29,0.02C21.05,9.21,21.22,8.59,20.86,8.57 L20.86,8.57z"/>
      <path style="fill:#EDB92B;" d="M23.74,8.81c-0.15-0.05-0.17,0.23-0.16,0.29c0.02,0.09,0.05,0.1,0.12,0.04C23.75,9.09,23.88,8.85,23.74,8.81 L23.74,8.81L23.74,8.81z"/>
      <path style="fill:#FFFFFF;" d="M23.69,8.95c-0.34-0.11-0.41,0.53-0.37,0.68c0.05,0.2,0.13,0.23,0.28,0.09C23.72,9.61,24.03,9.05,23.69,8.95 L23.69,8.95L23.69,8.95z"/>
      <path style="fill:#EDB92B;" d="M19.99,5.59c0.76-0.07,1.55,0.01,2.32,0.32c0.65,0.26,0.59,1.02-0.21,2.06c0.07,0.13,0.11,0.3,0.12,0.49 c-0.08,0-0.14,0-0.22,0c0.06-0.13-0.01-0.28-0.08-0.39c-0.05-0.07-0.06-0.06,0-0.14c0.47-0.66,0.79-1.24,0.6-1.59 c-0.22-0.42-1.09-0.65-2.56-0.61c0-0.04,0.01-0.08,0.01-0.12C19.98,5.6,19.98,5.59,19.99,5.59L19.99,5.59L19.99,5.59z"/>
      <path style="fill:#FFFFFF;" d="M23.7,5.8c-0.15,0-0.27,0.12-0.27,0.27c0,0.15,0.12,0.27,0.27,0.27c0.15,0,0.27-0.12,0.27-0.27 C23.97,5.93,23.85,5.8,23.7,5.8L23.7,5.8z"/>
      <path style="fill:#FFFFFF;" d="M23.16,5.63c-0.15,0-0.27,0.12-0.27,0.27c0,0.15,0.12,0.27,0.27,0.27c0.15,0,0.27-0.12,0.27-0.27 C23.44,5.75,23.31,5.63,23.16,5.63L23.16,5.63z"/>
      <path style="fill:#EDB92B;" d="M23.09,5.86c-0.03,0.04-0.05,0.07-0.08,0.11c0.43,0.24,0.61,0.49,0.57,0.74c-0.01,0.04-0.14,0.5-0.43,1.39 c-0.2,0.14-0.35,0.26-0.45,0.37c0.01,0.01-0.03,0.05-0.02,0.06c-0.03,0.14,0.12,0.11,0.23,0.07c0.05-0.13,0.2-0.27,0.29-0.33 c0.02-0.01,0.08-0.04,0.09-0.06c0.16-0.5,0.31-0.96,0.45-1.39C23.87,6.39,23.57,6.08,23.09,5.86L23.09,5.86L23.09,5.86z"/>
      <path style="fill:#EDB92B;" d="M24.79,9.07l0.02,0.09c0.13,0.03,0.23,0.04,0.32,0.02C24.98,9.04,24.87,9.01,24.79,9.07L24.79,9.07 L24.79,9.07z"/>
      <path style="fill:#EDB92B;" d="M24.81,8.87c-0.08,0.02-0.09,0.03-0.12,0.04c-0.04,0.01-0.1,0-0.15-0.03c-0.17-0.1-0.17,0.08-0.11,0.22 c0.05,0.1,0.02,0.21-0.02,0.3c-0.05,0.1-0.04,0.15,0,0.17c0.03,0.02,0.05,0.03,0.07,0.05c0.05,0.05,0.08,0.05,0.09-0.03 c0.17-0.07,0.23-0.23,0.28-0.38C24.92,9.01,25.19,8.96,24.81,8.87L24.81,8.87L24.81,8.87z"/>
      <path style="fill:#EDB92B;" d="M24.74,8.88c-0.15,0.05-0.16-0.03-0.26-0.03c0.04,0.23,0.08,0.34,0.32,0.22c0.13-0.07,0.3,0.03,0.33,0.1 c0.01,0.03,0.09-0.03,0.11-0.09C25.35,8.84,24.94,8.81,24.74,8.88L24.74,8.88L24.74,8.88z"/>
      <path style="fill:#FFFFFF;" d="M20.23,5c-0.15,0-0.27,0.12-0.27,0.27s0.12,0.27,0.27,0.27s0.27-0.12,0.27-0.27S20.38,5,20.23,5L20.23,5z"/>
      <path style="fill:#FFFFFF;" d="M20.78,5c-0.15,0-0.27,0.12-0.27,0.27s0.12,0.27,0.27,0.27s0.27-0.12,0.27-0.27S20.93,5,20.78,5L20.78,5z"/>
      <path style="fill:#FFFFFF;" d="M21.34,5.05c-0.15,0-0.27,0.12-0.27,0.27c0,0.15,0.12,0.27,0.27,0.27s0.27-0.12,0.27-0.27 C21.61,5.17,21.49,5.05,21.34,5.05L21.34,5.05z"/>
      <path style="fill:#FFFFFF;" d="M21.85,5.15c-0.15,0-0.27,0.12-0.27,0.27s0.12,0.27,0.27,0.27c0.15,0,0.27-0.12,0.27-0.27S22,5.15,21.85,5.15 L21.85,5.15z"/>
      <path style="fill:#FFFFFF;" d="M25.22,6.54c-0.15,0-0.27,0.12-0.27,0.27c0,0.15,0.12,0.27,0.27,0.27c0.15,0,0.27-0.12,0.27-0.27 C25.49,6.67,25.37,6.54,25.22,6.54L25.22,6.54z"/>
      <path style="fill:#FFFFFF;" d="M24.75,6.25c-0.15,0-0.27,0.12-0.27,0.27s0.12,0.27,0.27,0.27s0.27-0.12,0.27-0.27S24.9,6.25,24.75,6.25 L24.75,6.25z"/>
      <path style="fill:#FFFFFF;" d="M24.22,6c-0.15,0-0.27,0.12-0.27,0.27c0,0.15,0.12,0.27,0.27,0.27c0.15,0,0.27-0.12,0.27-0.27 C24.49,6.12,24.37,6,24.22,6L24.22,6z"/>
      <path style="fill:#FFFFFF;" d="M25.58,6.99c-0.15,0-0.27,0.12-0.27,0.27c0,0.15,0.12,0.27,0.27,0.27c0.15,0,0.27-0.12,0.27-0.27 C25.85,7.11,25.73,6.99,25.58,6.99L25.58,6.99z"/>
      <path style="fill:#EDB92B;" d="M24.13,9.98c-0.11-0.03-0.27,0.2-0.31,0.2c-0.05-0.14,0.05-0.46,0.25-0.72c0.13-0.04,0.14-0.13,0.17-0.32 c0.01-0.06,0.12-0.02,0.12,0.08c0,0.1,0.01,0.16-0.01,0.25c-0.01,0.04,0,0.07,0.04,0.1C24.17,9.66,24.12,9.75,24.13,9.98 L24.13,9.98z"/>
      <path style="fill:#EDB92B;" d="M24.22,9.14c0.02,0.04,0.02,0.08,0.03,0.15c0,0.05-0.02,0.1-0.05,0.14c-0.03,0.04-0.08,0.08-0.13,0.11 c-0.03,0.02-0.07,0.07-0.1,0.13c-0.03,0.06-0.05,0.13-0.05,0.17c0,0.16-0.04,0.3-0.11,0.32c-0.05,0.02-0.07,0.02-0.1,0.01 c0.01-0.03,0.01-0.07,0.03-0.11c0.03-0.05,0.06-0.11,0.06-0.16c0-0.04,0.02-0.07,0.01-0.14c-0.01-0.05-0.04-0.07-0.04-0.12 c0.01-0.09,0.08-0.27,0.19-0.27c0.1,0,0.15-0.01,0.21-0.15C24.18,9.19,24.21,9.17,24.22,9.14L24.22,9.14L24.22,9.14z"/>
      <path style="fill:#EDB92B;" d="M24.61,9.52c-0.03-0.02-0.06-0.04-0.1-0.05c-0.05-0.02-0.11-0.02-0.17-0.01c-0.25,0.07-0.36,0.51-0.09,0.62 c0.05,0.01,0.1-0.04,0.15-0.15c0.06-0.14,0.12-0.24,0.18-0.3C24.64,9.59,24.64,9.55,24.61,9.52L24.61,9.52L24.61,9.52z"/>
      <path style="fill:#EDB92B;" d="M24.49,9.55C24.25,9.46,24.07,9.91,24.3,10c0.12,0.05,0.13-0.1,0.15-0.19C24.48,9.7,24.72,9.64,24.49,9.55 L24.49,9.55z"/>
      <path style="fill:#184275;" d="M24.46,9.62c-0.12-0.05-0.28,0.23-0.13,0.29c0.1,0.04,0.18-0.01,0.21-0.09C24.57,9.73,24.54,9.65,24.46,9.62 L24.46,9.62z"/>
      <path style="fill:#FFFFFF;" d="M22.83,7.43c-0.16,0-0.28,0.13-0.28,0.28c0,0.16,0.13,0.28,0.28,0.28c0.16,0,0.28-0.13,0.28-0.28 C23.12,7.56,22.99,7.43,22.83,7.43L22.83,7.43z"/>
      <path style="fill:#FFFFFF;" d="M23.04,6.96c-0.16,0-0.28,0.13-0.28,0.28c0,0.16,0.13,0.28,0.28,0.28c0.16,0,0.28-0.13,0.28-0.28 C23.32,7.09,23.2,6.96,23.04,6.96L23.04,6.96z"/>
      <path style="fill:#FFFFFF;" d="M22.36,5.31c-0.15,0-0.27,0.12-0.27,0.27c0,0.15,0.12,0.27,0.27,0.27s0.27-0.12,0.27-0.27 C22.64,5.43,22.51,5.31,22.36,5.31L22.36,5.31z"/>
      <path style="fill:#FFFFFF;" d="M22.82,5.52c-0.16,0-0.28,0.13-0.28,0.28c0,0.16,0.13,0.28,0.28,0.28S23.1,5.96,23.1,5.8 C23.1,5.65,22.98,5.52,22.82,5.52L22.82,5.52z"/>
      <path style="fill:#FFFFFF;" d="M23.16,5.92c-0.16,0-0.28,0.13-0.28,0.28c0,0.16,0.13,0.28,0.28,0.28c0.16,0,0.28-0.13,0.28-0.28 C23.44,6.04,23.31,5.92,23.16,5.92L23.16,5.92z"/>
      <path style="fill:#FFFFFF;" d="M23.21,6.42c-0.16,0-0.28,0.13-0.28,0.28s0.13,0.28,0.28,0.28c0.16,0,0.28-0.13,0.28-0.28 S23.37,6.42,23.21,6.42L23.21,6.42z"/>
      <path style="fill:#20221D;" d="M24.57,9.49l-0.03-0.01c0.07-0.09,0.08-0.19,0.06-0.28C24.65,9.27,24.64,9.38,24.57,9.49L24.57,9.49z"/>
      <path style="fill:#EDB92B;" d="M22.36,8.33c-0.06,0.07-0.05,0.09-0.08,0.11c-0.04,0.03-0.1,0.02-0.15,0c-0.22-0.08-0.22,0.09-0.15,0.28 C22,8.81,22.09,8.92,22.14,9c0.04,0.08,0.03,0.14,0.05,0.16c0.08,0.01,0.15,0.02,0.18,0.03h0c0.03,0,0.1,0.01,0.17,0.02 c0.03-0.01,0.04-0.07,0.12-0.13c0.07-0.06,0.2-0.13,0.26-0.2c0.14-0.15,0.21-0.3-0.01-0.29c-0.05,0-0.11-0.01-0.13-0.05 c-0.02-0.03,0-0.04-0.02-0.13c-0.01-0.06-0.03-0.1-0.06-0.13c-0.03-0.03-0.07-0.03-0.1-0.03c-0.04-0.01-0.07-0.03-0.11-0.01 C22.44,8.24,22.4,8.28,22.36,8.33L22.36,8.33L22.36,8.33z"/>
      <path style="fill:#20221D;" d="M22.39,9.19c0.01,0,0.02,0,0.04,0c0.06-0.17,0.16-0.31,0.28-0.42C22.58,8.83,22.46,9,22.39,9.19L22.39,9.19z"/>
      <path style="fill:#20221D;" d="M22.33,9.18c-0.01,0-0.02-0.01-0.03-0.01c0.02-0.18,0-0.33-0.07-0.48C22.32,8.79,22.35,8.99,22.33,9.18 L22.33,9.18z"/>
      <path style="fill:#EDB92B;" d="M22.02,8.42c0.01,0.06,0.02,0.13,0.05,0.19c0.05,0.09,0.16,0.06,0.29-0.03c0.04-0.03,0.1-0.03,0.15-0.02 c0.05,0.01,0.11,0.04,0.13,0.07c0.07,0.12,0.16,0.18,0.24,0.12c0.05-0.04,0.09-0.1,0.12-0.15c-0.02-0.01-0.05-0.01-0.09-0.01 c-0.05,0-0.11-0.01-0.13-0.05c-0.02-0.03,0-0.04-0.02-0.13c-0.01-0.06-0.03-0.1-0.06-0.13c-0.03-0.03-0.07-0.03-0.1-0.03 c-0.04-0.01-0.07-0.03-0.11-0.01c-0.04,0.02-0.08,0.05-0.12,0.1c-0.06,0.07-0.05,0.09-0.08,0.11c-0.04,0.03-0.1,0.02-0.15,0 C22.08,8.42,22.05,8.42,22.02,8.42L22.02,8.42L22.02,8.42z"/>
      <path style="fill:#EDB92B;" d="M23.2,9.26c-0.03-0.04-0.05-0.03-0.05-0.06c-0.01-0.03,0.01-0.09,0.04-0.14c0.1-0.2-0.01-0.18-0.16-0.1 c-0.04,0.02-0.08,0.06-0.13,0.09c-0.04,0.04-0.09,0.08-0.12,0.1c-0.07,0.05-0.12,0.05-0.14,0.08c-0.03,0.08-0.06,0.15-0.07,0.18h0 c-0.01,0.03-0.04,0.1-0.07,0.18c0,0.02,0.05,0.03,0.08,0.09c0.03,0.06,0.06,0.16,0.09,0.21c0.06,0.07,0.11,0.12,0.15,0.11 c0.04-0.01,0.07-0.06,0.08-0.19c0-0.05,0.03-0.1,0.07-0.13c0.03-0.02,0.03-0.01,0.1-0.05c0.04-0.02,0.08-0.05,0.1-0.08 c0.03-0.03,0.03-0.06,0.04-0.1c0.01-0.03,0.03-0.07,0.03-0.1C23.24,9.32,23.22,9.29,23.2,9.26L23.2,9.26L23.2,9.26z"/>
      <path style="fill:#20221D;" d="M22.55,9.48c0,0.01-0.01,0.03-0.01,0.04c0.06,0.02,0.12,0.04,0.16,0.08c0.04,0.04,0.08,0.08,0.11,0.14 c-0.01-0.06-0.04-0.12-0.09-0.16C22.68,9.53,22.62,9.5,22.55,9.48L22.55,9.48z"/>
      <path style="fill:#20221D;" d="M22.57,9.41c0.01-0.01,0.01-0.03,0.02-0.04c0.07-0.01,0.14-0.02,0.21-0.05c0.07-0.03,0.13-0.07,0.2-0.12 c-0.05,0.06-0.12,0.11-0.19,0.14C22.73,9.37,22.65,9.4,22.57,9.41L22.57,9.41z"/>
      <path style="fill:#EDB92B;" d="M23.22,8.94c-0.04,0.02-0.07,0.04-0.12,0.08c-0.04,0.03-0.06,0.08-0.07,0.13c-0.01,0.05,0,0.11,0.01,0.17 c0.01,0.04,0,0.1-0.02,0.16s-0.05,0.12-0.09,0.15c-0.11,0.11-0.18,0.22-0.15,0.29c0.02,0.05,0.04,0.06,0.07,0.08 c0.01-0.03,0.04-0.05,0.05-0.09c0.01-0.06,0.04-0.12,0.07-0.15c0.03-0.03,0.03-0.06,0.1-0.1c0.04-0.03,0.08-0.01,0.11-0.05 c0.06-0.07,0.13-0.24,0.06-0.31c-0.07-0.08-0.1-0.12-0.04-0.25C23.21,9,23.21,8.96,23.22,8.94L23.22,8.94L23.22,8.94z"/>
      <path style="fill:#EDB92B;" d="M21.33,9.48c0.06,0.05,0.07,0.04,0.09,0.07c0.02,0.04,0.01,0.09-0.01,0.15c-0.07,0.21,0.06,0.19,0.21,0.11 c0.08-0.04,0.17-0.14,0.24-0.19c0.07-0.05,0.12-0.05,0.14-0.07c0.02-0.08,0.03-0.16,0.04-0.19c0.01-0.03,0.02-0.11,0.04-0.19 c-0.01-0.03-0.06-0.04-0.1-0.11c-0.05-0.07-0.1-0.2-0.16-0.27c-0.13-0.13-0.26-0.19-0.26,0.06c0,0.06-0.01,0.12-0.05,0.16 c-0.03,0.03-0.04,0.01-0.11,0.05c-0.05,0.02-0.09,0.05-0.11,0.09c-0.03,0.03-0.02,0.08-0.03,0.12c-0.01,0.04-0.02,0.08-0.01,0.12 C21.26,9.42,21.29,9.45,21.33,9.48L21.33,9.48L21.33,9.48z"/>
      <path style="fill:#20221D;" d="M22.04,9.32c0-0.01,0-0.03,0-0.04c-0.14-0.04-0.25-0.12-0.34-0.24C21.75,9.17,21.89,9.28,22.04,9.32 L22.04,9.32L22.04,9.32z"/>
      <path style="fill:#20221D;" d="M22.03,9.39c0,0.01-0.01,0.02-0.01,0.04c-0.15,0-0.28,0.05-0.41,0.14C21.7,9.46,21.87,9.4,22.03,9.39 L22.03,9.39z"/>
      <path style="fill:#EDB92B;" d="M21.39,9.8c0.05-0.01,0.1-0.03,0.15-0.07c0.07-0.06,0.05-0.17-0.01-0.28c-0.02-0.04-0.02-0.1-0.01-0.16 c0.01-0.06,0.03-0.12,0.07-0.15c0.1-0.1,0.17-0.21,0.11-0.29c-0.04-0.05-0.08-0.08-0.13-0.11c-0.01,0.03-0.02,0.06-0.02,0.11 c0,0.06-0.01,0.12-0.05,0.16c-0.03,0.03-0.04,0.01-0.11,0.05c-0.05,0.02-0.08,0.05-0.11,0.09c-0.03,0.03-0.02,0.08-0.03,0.12 c-0.01,0.04-0.02,0.08-0.01,0.12c0.02,0.04,0.04,0.07,0.08,0.11c0.06,0.05,0.07,0.04,0.09,0.07c0.02,0.04,0.01,0.09-0.01,0.15 C21.39,9.74,21.39,9.77,21.39,9.8L21.39,9.8L21.39,9.8z"/>
      <path style="fill:#EDB92B;" d="M22.37,9.05c-0.18-0.01-0.35,0.15-0.38,0.34c-0.03,0.19,0.1,0.34,0.27,0.34c0.17,0,0.33-0.14,0.36-0.32 C22.66,9.23,22.55,9.06,22.37,9.05L22.37,9.05L22.37,9.05z"/>
      <path style="fill:#EDB92B;" d="M22.35,9.15c-0.13-0.01-0.26,0.11-0.28,0.25c-0.02,0.14,0.07,0.25,0.2,0.25c0.13,0,0.24-0.1,0.27-0.24 C22.57,9.27,22.48,9.15,22.35,9.15L22.35,9.15L22.35,9.15z"/>
      <path style="fill:#184275;" d="M22.34,9.24c-0.08,0-0.16,0.07-0.17,0.15c-0.01,0.09,0.04,0.16,0.12,0.16c0.08,0,0.15-0.06,0.17-0.15 C22.47,9.32,22.42,9.25,22.34,9.24L22.34,9.24L22.34,9.24z"/>
      <path style="fill:#EDB92B;" d="M23.4,12.45c0.09,0.01,0.14,0.07,0.13,0.13c0,0.06-0.04,0.11-0.13,0.13c-0.02,0.01-0.04,0.01-0.07,0.01 c-2.7,0.23-5.58,0.23-8.28,0c-0.02,0-0.05-0.01-0.07-0.01c-0.09-0.01-0.14-0.07-0.13-0.13c0-0.06,0.04-0.11,0.13-0.13 c0.02-0.01,0.04-0.01,0.07-0.01c2.7-0.23,5.58-0.23,8.28,0C23.36,12.44,23.38,12.44,23.4,12.45L23.4,12.45L23.4,12.45z"/>
      <path style="fill:#C6363C;" d="M11.63,12.75v12.23c0,2.19,0.85,4.18,2.22,5.62c1.37,1.44,3.26,2.33,5.35,2.33h0c2.08,0,3.98-0.89,5.35-2.33 c1.37-1.44,2.22-3.43,2.22-5.62V12.75L11.63,12.75L11.63,12.75z"/>
      <path style="fill:#FFFFFF;" d="M22.22,18.2v4.89c0,0.88-0.34,1.67-0.89,2.25c-0.55,0.58-1.3,0.93-2.14,0.93h0c-0.83,0-1.59-0.36-2.14-0.93 c-0.55-0.58-0.89-1.37-0.89-2.25V18.2H22.22L22.22,18.2z"/>
      <path style="fill:#FFFFFF;" d="M18.15,18.92v1.77c-0.39,0.1-1.33,0.48-1.38-0.34c-0.02-0.38,0.47-0.63,0.6-0.29 c0.06,0.16-0.01,0.27-0.1,0.31c-0.1,0.04-0.2-0.04-0.17-0.16c-0.4,0.21,0.36,0.65,0.7,0.08c0.1-0.17-0.17-0.34-0.17-0.47 c0-0.12,0.26-0.31,0.17-0.47c-0.35-0.58-1.1-0.13-0.7,0.07c-0.03-0.12,0.07-0.2,0.17-0.16c0.09,0.04,0.16,0.15,0.1,0.31 c-0.13,0.33-0.63,0.08-0.6-0.29C16.83,18.44,17.77,18.81,18.15,18.92L18.15,18.92L18.15,18.92z"/>
      <path style="fill:#FFFFFF;" d="M20.23,18.92v1.77c0.39,0.1,1.33,0.48,1.38-0.34c0.02-0.38-0.47-0.63-0.6-0.29 c-0.06-0.16,0.01-0.27,0.1-0.31c0.1-0.04,0.2,0.04,0.17-0.16c0.4-0.21-0.36-0.65-0.7-0.08c-0.1-0.17,0.17-0.34,0.17-0.47 c0-0.12-0.26-0.31-0.17-0.47c0.35-0.58,1.1-0.13,0.7-0.08c0.03-0.12-0.07-0.2-0.17-0.16c-0.09-0.04-0.16-0.15-0.1-0.31 c0.13-0.34,0.63-0.08,0.6-0.29C21.56,18.44,20.62,18.81,20.23,18.92L20.23,18.92L20.23,18.92z"/>
      <path style="fill:#FFFFFF;" d="M18.15,24.75v-1.77c-0.39-0.1-1.33-0.48-1.38,0.34c-0.02,0.38,0.47,0.63,0.6,0.29 c0.06-0.16-0.01-0.27-0.1-0.31c-0.1-0.04-0.2,0.04-0.17,0.16c-0.4-0.21,0.36-0.65,0.7-0.08c0.1,0.17-0.17,0.34-0.17,0.47 c0,0.12,0.26,0.31,0.17,0.47c-0.35,0.58-1.1,0.13-0.7-0.08c-0.03,0.12,0.07,0.2,0.17,0.16c0.09-0.04,0.16-0.15,0.1-0.31 c-0.13-0.34-0.63-0.08-0.6,0.29C16.83,25.23,17.77,24.86,18.15,24.75L18.15,24.75L18.15,24.75z"/>
      <path style="fill:#FFFFFF;" d="M20.23,24.75v-1.77c0.39-0.1,1.33-0.48,1.38,0.34c0.02,0.38-0.47,0.63-0.6,0.29 c-0.06-0.16,0.01-0.27,0.1-0.31c0.1-0.04,0.2,0.04,0.17,0.16c0.4-0.21-0.36-0.65-0.7-0.08c-0.1-0.17,0.17-0.34,0.17-0.47 c0,0.12-0.26-0.31-0.17-0.47c0.35,0.58,1.1,0.13,0.7-0.08c0.03,0.12-0.07,0.2-0.17,0.16c-0.09-0.04-0.16-0.15-0.1-0.31 c0.13-0.34,0.63-0.08,0.6,0.29C21.56,25.23,20.62,24.86,20.23,24.75L20.23,24.75L20.23,24.75z"/>
    </g>
  </g>

  <!-- Feiner Rand um den Kreis -->
  <circle 
    style="fill:none; stroke:#333333; stroke-width:2;" 
    cx="50" 
    cy="50" 
    r="49"
  />
</svg>