<svg xmlns="http://www.w3.org/2000/svg" height="64" width="64" viewBox="0 0 100 100">
  <!-- Definiert eine runde Maske -->
  <defs>
    <clipPath id="circle-clip-slovenia">
      <circle cx="50" cy="50" r="50"/>
    </clipPath>
  </defs>

  <!-- Gruppe für die Flagge, die von der runden Maske zugeschnitten wird -->
  <g clip-path="url(#circle-clip-slovenia)">
    
    <!-- Weisser Streifen (oben) -->
    <rect width="100" height="33.33" y="0" style="fill:#FFFFFF;"/>
    <!-- Blauer Streifen (mitte) -->
    <rect width="100" height="33.33" y="33.33" style="fill:#005DAA;"/>
    <!-- Roter Streifen (unten) -->
    <rect width="100" height="33.34" y="66.66" style="fill:#C8102E;"/>
    
    <!-- Wappen (vereinfacht) -->
    <g transform="translate(18, 18) scale(1.5)">
        <!-- Schild -->
        <path d="M 0,0 H 20 V 22 L 10,28 L 0,22 Z" style="fill:none; stroke:#C8102E; stroke-width:1.5;"/>
        
        <!-- Berg Triglav (weiss) -->
        <path d="M 4,20 L 10,10 L 16,20 Z M 7,16 L 10,13 L 13,16" style="fill:#FFFFFF;"/>
        
        <!-- Wellen (blau) -->
        <path d="M 4,22 C 8,20, 12,24, 16,22" style="fill:none; stroke:#005DAA; stroke-width:1.5;"/>
        <path d="M 4,25 C 8,23, 12,27, 16,25" style="fill:none; stroke:#005DAA; stroke-width:1.5;"/>

        <!-- Sterne (gold) -->
        <g style="fill:#FFC72C;">
            <circle cx="10" cy="4" r="1.5"/>
            <circle cx="6" cy="7" r="1.5"/>
            <circle cx="14" cy="7" r="1.5"/>
        </g>
    </g>

  </g>

  <!-- Feiner Rand um den Kreis -->
  <circle 
    style="fill:none; stroke:#333333; stroke-width:2;" 
    cx="50" 
    cy="50" 
    r="49"
  />
</svg>